solid OpenSCAD_Model
  facet normal -0 0 1
    outer loop
      vertex 43.65 -9.75 -10.5
      vertex 44.3 -26.75 -10.5
      vertex 44.3 -9.75 -10.5
    endloop
  endfacet
  facet normal 0 0 1
    outer loop
      vertex 44.3 -26.75 -10.5
      vertex 43.65 -9.75 -10.5
      vertex 43.65 -26.75 -10.5
    endloop
  endfacet
  facet normal 0 1 -0
    outer loop
      vertex 44.3 -26.75 -10.5
      vertex 43.65 -26.75 12.1
      vertex 44.3 -26.75 12.1
    endloop
  endfacet
  facet normal 0 1 0
    outer loop
      vertex 43.65 -26.75 12.1
      vertex 44.3 -26.75 -10.5
      vertex 43.65 -26.75 -10.5
    endloop
  endfacet
  facet normal 0 -1 0
    outer loop
      vertex 43.65 -9.75 -10.5
      vertex 44.3 -9.75 12.1
      vertex 43.65 -9.75 12.1
    endloop
  endfacet
  facet normal 0 -1 -0
    outer loop
      vertex 44.3 -9.75 12.1
      vertex 43.65 -9.75 -10.5
      vertex 44.3 -9.75 -10.5
    endloop
  endfacet
  facet normal -0 0 1
    outer loop
      vertex 43.65 8.25 -10.5
      vertex 44.3 -6.25 -10.5
      vertex 44.3 8.25 -10.5
    endloop
  endfacet
  facet normal 0 0 1
    outer loop
      vertex 44.3 -6.25 -10.5
      vertex 43.65 8.25 -10.5
      vertex 43.65 -6.25 -10.5
    endloop
  endfacet
  facet normal 0 1 -0
    outer loop
      vertex 44.3 -6.25 -10.5
      vertex 43.65 -6.25 12.1
      vertex 44.3 -6.25 12.1
    endloop
  endfacet
  facet normal 0 1 0
    outer loop
      vertex 43.65 -6.25 12.1
      vertex 44.3 -6.25 -10.5
      vertex 43.65 -6.25 -10.5
    endloop
  endfacet
  facet normal 0 -1 0
    outer loop
      vertex 43.65 8.25 -10.5
      vertex 44.3 8.25 12.1
      vertex 43.65 8.25 12.1
    endloop
  endfacet
  facet normal 0 -1 -0
    outer loop
      vertex 44.3 8.25 12.1
      vertex 43.65 8.25 -10.5
      vertex 44.3 8.25 -10.5
    endloop
  endfacet
  facet normal 0 -1 0
    outer loop
      vertex 43.65 25.25 -10.5
      vertex 44.3 25.25 12.1
      vertex 43.65 25.25 12.1
    endloop
  endfacet
  facet normal 0 -1 -0
    outer loop
      vertex 44.3 25.25 12.1
      vertex 43.65 25.25 -10.5
      vertex 44.3 25.25 -10.5
    endloop
  endfacet
  facet normal -0 0 1
    outer loop
      vertex 43.65 25.25 -10.5
      vertex 44.3 10.75 -10.5
      vertex 44.3 25.25 -10.5
    endloop
  endfacet
  facet normal 0 0 1
    outer loop
      vertex 44.3 10.75 -10.5
      vertex 43.65 25.25 -10.5
      vertex 43.65 10.75 -10.5
    endloop
  endfacet
  facet normal 0 1 -0
    outer loop
      vertex 44.3 10.75 -10.5
      vertex 43.65 10.75 12.1
      vertex 44.3 10.75 12.1
    endloop
  endfacet
  facet normal 0 1 0
    outer loop
      vertex 43.65 10.75 12.1
      vertex 44.3 10.75 -10.5
      vertex 43.65 10.75 -10.5
    endloop
  endfacet
  facet normal 1 -0 0
    outer loop
      vertex -34.8 -29.7 12.1
      vertex -34.8 -28.95 -10.5
      vertex -34.8 -28.95 12.1
    endloop
  endfacet
  facet normal 1 0 0
    outer loop
      vertex -34.8 -28.95 -10.5
      vertex -34.8 -29.7 12.1
      vertex -34.8 -29.7 -10.5
    endloop
  endfacet
  facet normal -1 0 0
    outer loop
      vertex -24.8 -29.7 -10.5
      vertex -24.8 -28.95 12.1
      vertex -24.8 -28.95 -10.5
    endloop
  endfacet
  facet normal -1 -0 0
    outer loop
      vertex -24.8 -28.95 12.1
      vertex -24.8 -29.7 -10.5
      vertex -24.8 -29.7 12.1
    endloop
  endfacet
  facet normal -0 0 1
    outer loop
      vertex -34.8 -28.95 -10.5
      vertex -24.8 -29.7 -10.5
      vertex -24.8 -28.95 -10.5
    endloop
  endfacet
  facet normal 0 0 1
    outer loop
      vertex -24.8 -29.7 -10.5
      vertex -34.8 -28.95 -10.5
      vertex -34.8 -29.7 -10.5
    endloop
  endfacet
  facet normal 1 -0 0
    outer loop
      vertex -16.8 -29.7 12.1
      vertex -16.8 -28.95 -10.5
      vertex -16.8 -28.95 12.1
    endloop
  endfacet
  facet normal 1 0 0
    outer loop
      vertex -16.8 -28.95 -10.5
      vertex -16.8 -29.7 12.1
      vertex -16.8 -29.7 -10.5
    endloop
  endfacet
  facet normal -1 0 0
    outer loop
      vertex -0.8 -29.7 -10.5
      vertex -0.8 -28.95 12.1
      vertex -0.8 -28.95 -10.5
    endloop
  endfacet
  facet normal -1 -0 0
    outer loop
      vertex -0.8 -28.95 12.1
      vertex -0.8 -29.7 -10.5
      vertex -0.8 -29.7 12.1
    endloop
  endfacet
  facet normal -0 0 1
    outer loop
      vertex -16.8 -28.95 -10.5
      vertex -0.8 -29.7 -10.5
      vertex -0.8 -28.95 -10.5
    endloop
  endfacet
  facet normal 0 0 1
    outer loop
      vertex -0.8 -29.7 -10.5
      vertex -16.8 -28.95 -10.5
      vertex -16.8 -29.7 -10.5
    endloop
  endfacet
  facet normal 1 -0 0
    outer loop
      vertex 8.2 -29.7 12.1
      vertex 8.2 -28.95 -10.5
      vertex 8.2 -28.95 12.1
    endloop
  endfacet
  facet normal 1 0 0
    outer loop
      vertex 8.2 -28.95 -10.5
      vertex 8.2 -29.7 12.1
      vertex 8.2 -29.7 -10.5
    endloop
  endfacet
  facet normal -1 0 0
    outer loop
      vertex 17.2 -29.7 -10.5
      vertex 17.2 -28.95 12.1
      vertex 17.2 -28.95 -10.5
    endloop
  endfacet
  facet normal -1 -0 0
    outer loop
      vertex 17.2 -28.95 12.1
      vertex 17.2 -29.7 -10.5
      vertex 17.2 -29.7 12.1
    endloop
  endfacet
  facet normal -0 0 1
    outer loop
      vertex 8.2 -28.95 -10.5
      vertex 17.2 -29.7 -10.5
      vertex 17.2 -28.95 -10.5
    endloop
  endfacet
  facet normal 0 0 1
    outer loop
      vertex 17.2 -29.7 -10.5
      vertex 8.2 -28.95 -10.5
      vertex 8.2 -29.7 -10.5
    endloop
  endfacet
  facet normal -1 0 0
    outer loop
      vertex -44.3 10.6 -7.8
      vertex -44.3 29.7 -12.1
      vertex -44.3 10.6 -10.8
    endloop
  endfacet
  facet normal -1 0 0
    outer loop
      vertex -44.3 29.7 -12.1
      vertex -44.3 -10.6 -10.8
      vertex -44.3 10.6 -10.8
    endloop
  endfacet
  facet normal -1 -0 0
    outer loop
      vertex -44.3 -10.6 -10.8
      vertex -44.3 -29.7 -12.1
      vertex -44.3 -10.6 -7.8
    endloop
  endfacet
  facet normal -1 0 0
    outer loop
      vertex -44.3 -29.7 -12.1
      vertex -44.3 -10.6 -10.8
      vertex -44.3 29.7 -12.1
    endloop
  endfacet
  facet normal -1 0 0
    outer loop
      vertex -44.3 29.7 -12.1
      vertex -44.3 10.6 -7.8
      vertex -44.3 29.7 12.1
    endloop
  endfacet
  facet normal -1 0 0
    outer loop
      vertex -44.3 -10.6 -7.8
      vertex -44.3 29.7 12.1
      vertex -44.3 10.6 -7.8
    endloop
  endfacet
  facet normal -1 0 0
    outer loop
      vertex -44.3 -29.7 12.1
      vertex -44.3 -10.6 -7.8
      vertex -44.3 -29.7 -12.1
    endloop
  endfacet
  facet normal -1 0 0
    outer loop
      vertex -44.3 -10.6 -7.8
      vertex -44.3 -29.7 12.1
      vertex -44.3 29.7 12.1
    endloop
  endfacet
  facet normal 0 0 1
    outer loop
      vertex 44.3 29.7 12.1
      vertex 43.65 28.95 12.1
      vertex 44.3 25.25 12.1
    endloop
  endfacet
  facet normal 0 0 1
    outer loop
      vertex 44.3 29.7 12.1
      vertex -41.75 28.95 12.1
      vertex 43.65 28.95 12.1
    endloop
  endfacet
  facet normal 0 0 1
    outer loop
      vertex -41.75 28.95 12.1
      vertex -43.35 10.6 12.1
      vertex -41.75 10.6 12.1
    endloop
  endfacet
  facet normal 0 0 1
    outer loop
      vertex -43.35 10.6 12.1
      vertex -44.3 29.7 12.1
      vertex -43.35 -10.6 12.1
    endloop
  endfacet
  facet normal 0 0 1
    outer loop
      vertex -41.75 28.95 12.1
      vertex -44.3 29.7 12.1
      vertex -43.35 10.6 12.1
    endloop
  endfacet
  facet normal -0 0 1
    outer loop
      vertex -44.3 29.7 12.1
      vertex -41.75 28.95 12.1
      vertex 44.3 29.7 12.1
    endloop
  endfacet
  facet normal 0 0 1
    outer loop
      vertex 44.3 25.25 12.1
      vertex 43.65 28.95 12.1
      vertex 43.65 25.25 12.1
    endloop
  endfacet
  facet normal 0 0 1
    outer loop
      vertex -41.75 -10.6 12.1
      vertex -43.35 -10.6 12.1
      vertex -41.75 -28.95 12.1
    endloop
  endfacet
  facet normal -0 0 1
    outer loop
      vertex -41.75 -28.95 12.1
      vertex -34.8 -29.7 12.1
      vertex -34.8 -28.95 12.1
    endloop
  endfacet
  facet normal 0 0 1
    outer loop
      vertex -41.75 -28.95 12.1
      vertex -44.3 -29.7 12.1
      vertex -34.8 -29.7 12.1
    endloop
  endfacet
  facet normal 0 0 1
    outer loop
      vertex -43.35 -10.6 12.1
      vertex -44.3 -29.7 12.1
      vertex -41.75 -28.95 12.1
    endloop
  endfacet
  facet normal 0 0 1
    outer loop
      vertex -44.3 -29.7 12.1
      vertex -43.35 -10.6 12.1
      vertex -44.3 29.7 12.1
    endloop
  endfacet
  facet normal 0 0 1
    outer loop
      vertex 43.65 -28.95 12.1
      vertex 44.3 -26.75 12.1
      vertex 43.65 -26.75 12.1
    endloop
  endfacet
  facet normal 0 0 1
    outer loop
      vertex 44.3 -26.75 12.1
      vertex 43.65 -28.95 12.1
      vertex 44.3 -29.7 12.1
    endloop
  endfacet
  facet normal 0 0 1
    outer loop
      vertex 17.2 -29.7 12.1
      vertex 43.65 -28.95 12.1
      vertex 17.2 -28.95 12.1
    endloop
  endfacet
  facet normal 0 0 1
    outer loop
      vertex 43.65 -28.95 12.1
      vertex 17.2 -29.7 12.1
      vertex 44.3 -29.7 12.1
    endloop
  endfacet
  facet normal -0 0 1
    outer loop
      vertex 43.65 -6.25 12.1
      vertex 44.3 -9.75 12.1
      vertex 44.3 -6.25 12.1
    endloop
  endfacet
  facet normal 0 0 1
    outer loop
      vertex 44.3 -9.75 12.1
      vertex 43.65 -6.25 12.1
      vertex 43.65 -9.75 12.1
    endloop
  endfacet
  facet normal -0 0 1
    outer loop
      vertex 43.65 10.75 12.1
      vertex 44.3 8.25 12.1
      vertex 44.3 10.75 12.1
    endloop
  endfacet
  facet normal 0 0 1
    outer loop
      vertex 44.3 8.25 12.1
      vertex 43.65 10.75 12.1
      vertex 43.65 8.25 12.1
    endloop
  endfacet
  facet normal -0 0 1
    outer loop
      vertex -24.8 -28.95 12.1
      vertex -16.8 -29.7 12.1
      vertex -16.8 -28.95 12.1
    endloop
  endfacet
  facet normal 0 0 1
    outer loop
      vertex -16.8 -29.7 12.1
      vertex -24.8 -28.95 12.1
      vertex -24.8 -29.7 12.1
    endloop
  endfacet
  facet normal -0 0 1
    outer loop
      vertex -0.8 -28.95 12.1
      vertex 8.2 -29.7 12.1
      vertex 8.2 -28.95 12.1
    endloop
  endfacet
  facet normal 0 0 1
    outer loop
      vertex 8.2 -29.7 12.1
      vertex -0.8 -28.95 12.1
      vertex -0.8 -29.7 12.1
    endloop
  endfacet
  facet normal 1 0 0
    outer loop
      vertex 44.3 -26.75 12.1
      vertex 44.3 -29.7 12.1
      vertex 44.3 -26.75 -10.5
    endloop
  endfacet
  facet normal 1 0 0
    outer loop
      vertex 44.3 -6.25 12.1
      vertex 44.3 -9.75 12.1
      vertex 44.3 -6.25 -10.5
    endloop
  endfacet
  facet normal 1 0 0
    outer loop
      vertex 44.3 10.75 12.1
      vertex 44.3 8.25 12.1
      vertex 44.3 10.75 -10.5
    endloop
  endfacet
  facet normal 1 0 0
    outer loop
      vertex 44.3 25.25 -10.5
      vertex 44.3 29.7 12.1
      vertex 44.3 25.25 12.1
    endloop
  endfacet
  facet normal 1 0 0
    outer loop
      vertex 44.3 29.7 12.1
      vertex 44.3 25.25 -10.5
      vertex 44.3 29.7 -12.1
    endloop
  endfacet
  facet normal 1 -0 0
    outer loop
      vertex 44.3 10.75 -10.5
      vertex 44.3 29.7 -12.1
      vertex 44.3 25.25 -10.5
    endloop
  endfacet
  facet normal 1 0 0
    outer loop
      vertex 44.3 8.25 -10.5
      vertex 44.3 10.75 -10.5
      vertex 44.3 8.25 12.1
    endloop
  endfacet
  facet normal 1 -0 0
    outer loop
      vertex 44.3 8.25 -10.5
      vertex 44.3 29.7 -12.1
      vertex 44.3 10.75 -10.5
    endloop
  endfacet
  facet normal 1 -0 0
    outer loop
      vertex 44.3 -6.25 -10.5
      vertex 44.3 29.7 -12.1
      vertex 44.3 8.25 -10.5
    endloop
  endfacet
  facet normal 1 0 0
    outer loop
      vertex 44.3 -9.75 -10.5
      vertex 44.3 -6.25 -10.5
      vertex 44.3 -9.75 12.1
    endloop
  endfacet
  facet normal 1 0 0
    outer loop
      vertex 44.3 -29.7 -12.1
      vertex 44.3 -6.25 -10.5
      vertex 44.3 -9.75 -10.5
    endloop
  endfacet
  facet normal 1 0 0
    outer loop
      vertex 44.3 -29.7 -12.1
      vertex 44.3 -9.75 -10.5
      vertex 44.3 -26.75 -10.5
    endloop
  endfacet
  facet normal 1 0 0
    outer loop
      vertex 44.3 -6.25 -10.5
      vertex 44.3 -29.7 -12.1
      vertex 44.3 29.7 -12.1
    endloop
  endfacet
  facet normal 1 0 0
    outer loop
      vertex 44.3 -29.7 -12.1
      vertex 44.3 -26.75 -10.5
      vertex 44.3 -29.7 12.1
    endloop
  endfacet
  facet normal 0 1 -0
    outer loop
      vertex 44.3 29.7 -12.1
      vertex -44.3 29.7 12.1
      vertex 44.3 29.7 12.1
    endloop
  endfacet
  facet normal 0 1 0
    outer loop
      vertex -44.3 29.7 12.1
      vertex 44.3 29.7 -12.1
      vertex -44.3 29.7 -12.1
    endloop
  endfacet
  facet normal 0 0 -1
    outer loop
      vertex -44.3 -29.7 -12.1
      vertex 44.3 29.7 -12.1
      vertex 44.3 -29.7 -12.1
    endloop
  endfacet
  facet normal -0 0 -1
    outer loop
      vertex 44.3 29.7 -12.1
      vertex -44.3 -29.7 -12.1
      vertex -44.3 29.7 -12.1
    endloop
  endfacet
  facet normal 0 -1 0
    outer loop
      vertex -44.3 -29.7 12.1
      vertex -34.8 -29.7 -10.5
      vertex -34.8 -29.7 12.1
    endloop
  endfacet
  facet normal 0 -1 0
    outer loop
      vertex -44.3 -29.7 -12.1
      vertex -24.8 -29.7 -10.5
      vertex -34.8 -29.7 -10.5
    endloop
  endfacet
  facet normal 0 -1 -0
    outer loop
      vertex -24.8 -29.7 -10.5
      vertex -44.3 -29.7 -12.1
      vertex -16.8 -29.7 -10.5
    endloop
  endfacet
  facet normal 0 -1 -0
    outer loop
      vertex -16.8 -29.7 -10.5
      vertex -44.3 -29.7 -12.1
      vertex -0.8 -29.7 -10.5
    endloop
  endfacet
  facet normal 0 -1 -0
    outer loop
      vertex -0.8 -29.7 -10.5
      vertex -44.3 -29.7 -12.1
      vertex 8.2 -29.7 -10.5
    endloop
  endfacet
  facet normal 0 -1 0
    outer loop
      vertex 44.3 -29.7 -12.1
      vertex 8.2 -29.7 -10.5
      vertex -44.3 -29.7 -12.1
    endloop
  endfacet
  facet normal 0 -1 0
    outer loop
      vertex -44.3 -29.7 -12.1
      vertex -34.8 -29.7 -10.5
      vertex -44.3 -29.7 12.1
    endloop
  endfacet
  facet normal 0 -1 0
    outer loop
      vertex -24.8 -29.7 -10.5
      vertex -16.8 -29.7 12.1
      vertex -24.8 -29.7 12.1
    endloop
  endfacet
  facet normal 0 -1 -0
    outer loop
      vertex -16.8 -29.7 12.1
      vertex -24.8 -29.7 -10.5
      vertex -16.8 -29.7 -10.5
    endloop
  endfacet
  facet normal 0 -1 0
    outer loop
      vertex -0.8 -29.7 -10.5
      vertex 8.2 -29.7 12.1
      vertex -0.8 -29.7 12.1
    endloop
  endfacet
  facet normal 0 -1 -0
    outer loop
      vertex 8.2 -29.7 12.1
      vertex -0.8 -29.7 -10.5
      vertex 8.2 -29.7 -10.5
    endloop
  endfacet
  facet normal 0 -1 0
    outer loop
      vertex 17.2 -29.7 -10.5
      vertex 44.3 -29.7 12.1
      vertex 17.2 -29.7 12.1
    endloop
  endfacet
  facet normal 0 -1 0
    outer loop
      vertex 17.2 -29.7 -10.5
      vertex 44.3 -29.7 -12.1
      vertex 44.3 -29.7 12.1
    endloop
  endfacet
  facet normal 0 -1 0
    outer loop
      vertex 8.2 -29.7 -10.5
      vertex 44.3 -29.7 -12.1
      vertex 17.2 -29.7 -10.5
    endloop
  endfacet
  facet normal 1 -0 0
    outer loop
      vertex -41.75 10.6 12.1
      vertex -41.75 28.95 -10.6
      vertex -41.75 28.95 12.1
    endloop
  endfacet
  facet normal 1 0 0
    outer loop
      vertex -41.75 28.95 -10.6
      vertex -41.75 10.6 12.1
      vertex -41.75 10.6 -10.6
    endloop
  endfacet
  facet normal 1 -0 0
    outer loop
      vertex -41.75 -28.95 12.1
      vertex -41.75 -10.6 -10.6
      vertex -41.75 -10.6 12.1
    endloop
  endfacet
  facet normal 1 0 0
    outer loop
      vertex -41.75 -10.6 -10.6
      vertex -41.75 -28.95 12.1
      vertex -41.75 -28.95 -10.6
    endloop
  endfacet
  facet normal -1 0 0
    outer loop
      vertex 43.65 28.95 -10.6
      vertex 43.65 25.25 -10.5
      vertex 43.65 28.95 12.1
    endloop
  endfacet
  facet normal -1 0 0
    outer loop
      vertex 43.65 28.95 -10.6
      vertex 43.65 10.75 -10.5
      vertex 43.65 25.25 -10.5
    endloop
  endfacet
  facet normal -1 0 0
    outer loop
      vertex 43.65 10.75 -10.5
      vertex 43.65 8.25 -10.5
      vertex 43.65 10.75 12.1
    endloop
  endfacet
  facet normal -1 0 0
    outer loop
      vertex 43.65 28.95 -10.6
      vertex 43.65 8.25 -10.5
      vertex 43.65 10.75 -10.5
    endloop
  endfacet
  facet normal -1 0 0
    outer loop
      vertex 43.65 28.95 -10.6
      vertex 43.65 -6.25 -10.5
      vertex 43.65 8.25 -10.5
    endloop
  endfacet
  facet normal -1 0 0
    outer loop
      vertex 43.65 -6.25 -10.5
      vertex 43.65 -9.75 -10.5
      vertex 43.65 -6.25 12.1
    endloop
  endfacet
  facet normal -1 0 0
    outer loop
      vertex 43.65 28.95 -10.6
      vertex 43.65 -9.75 -10.5
      vertex 43.65 -6.25 -10.5
    endloop
  endfacet
  facet normal -1 0 0
    outer loop
      vertex 43.65 -28.95 -10.6
      vertex 43.65 -9.75 -10.5
      vertex 43.65 28.95 -10.6
    endloop
  endfacet
  facet normal -1 -0 0
    outer loop
      vertex 43.65 -9.75 -10.5
      vertex 43.65 -28.95 -10.6
      vertex 43.65 -26.75 -10.5
    endloop
  endfacet
  facet normal -1 0 0
    outer loop
      vertex 43.65 -28.95 12.1
      vertex 43.65 -26.75 -10.5
      vertex 43.65 -28.95 -10.6
    endloop
  endfacet
  facet normal -1 0 0
    outer loop
      vertex 43.65 -26.75 -10.5
      vertex 43.65 -28.95 12.1
      vertex 43.65 -26.75 12.1
    endloop
  endfacet
  facet normal -1 -0 0
    outer loop
      vertex 43.65 28.95 12.1
      vertex 43.65 25.25 -10.5
      vertex 43.65 25.25 12.1
    endloop
  endfacet
  facet normal -1 -0 0
    outer loop
      vertex 43.65 10.75 12.1
      vertex 43.65 8.25 -10.5
      vertex 43.65 8.25 12.1
    endloop
  endfacet
  facet normal -1 -0 0
    outer loop
      vertex 43.65 -6.25 12.1
      vertex 43.65 -9.75 -10.5
      vertex 43.65 -9.75 12.1
    endloop
  endfacet
  facet normal -0 0 1
    outer loop
      vertex -43.05 10.6 -10.6
      vertex -41.75 -10.6 -10.6
      vertex -41.75 10.6 -10.6
    endloop
  endfacet
  facet normal 0 0 1
    outer loop
      vertex -41.75 -10.6 -10.6
      vertex -43.05 10.6 -10.6
      vertex -43.05 -10.6 -10.6
    endloop
  endfacet
  facet normal 0 0 1
    outer loop
      vertex -41.75 10.6 -10.6
      vertex 43.65 28.95 -10.6
      vertex -41.75 28.95 -10.6
    endloop
  endfacet
  facet normal 0 0 1
    outer loop
      vertex 43.65 28.95 -10.6
      vertex -41.75 10.6 -10.6
      vertex 43.65 -28.95 -10.6
    endloop
  endfacet
  facet normal -0 0 1
    outer loop
      vertex -41.75 -10.6 -10.6
      vertex 43.65 -28.95 -10.6
      vertex -41.75 10.6 -10.6
    endloop
  endfacet
  facet normal 0 0 1
    outer loop
      vertex 43.65 -28.95 -10.6
      vertex -41.75 -10.6 -10.6
      vertex -41.75 -28.95 -10.6
    endloop
  endfacet
  facet normal 0 1 0
    outer loop
      vertex 43.65 -28.95 12.1
      vertex 17.2 -28.95 -10.5
      vertex 17.2 -28.95 12.1
    endloop
  endfacet
  facet normal 0 0 0
    outer loop
      vertex 17.2 -28.95 -10.5
      vertex -0.8 -28.95 -10.5
      vertex 8.2 -28.95 -10.5
    endloop
  endfacet
  facet normal 0 0 0
    outer loop
      vertex 17.2 -28.95 -10.5
      vertex -16.8 -28.95 -10.5
      vertex -0.8 -28.95 -10.5
    endloop
  endfacet
  facet normal 0 0 0
    outer loop
      vertex 17.2 -28.95 -10.5
      vertex -24.8 -28.95 -10.5
      vertex -16.8 -28.95 -10.5
    endloop
  endfacet
  facet normal 0 1 0
    outer loop
      vertex -41.75 -28.95 -10.6
      vertex -24.8 -28.95 -10.5
      vertex 17.2 -28.95 -10.5
    endloop
  endfacet
  facet normal 0 1 0
    outer loop
      vertex -41.75 -28.95 -10.6
      vertex 17.2 -28.95 -10.5
      vertex 43.65 -28.95 -10.6
    endloop
  endfacet
  facet normal 0 1 -0
    outer loop
      vertex 43.65 -28.95 -10.6
      vertex 17.2 -28.95 -10.5
      vertex 43.65 -28.95 12.1
    endloop
  endfacet
  facet normal 0 1 -0
    outer loop
      vertex 8.2 -28.95 -10.5
      vertex -0.8 -28.95 12.1
      vertex 8.2 -28.95 12.1
    endloop
  endfacet
  facet normal 0 1 0
    outer loop
      vertex -0.8 -28.95 12.1
      vertex 8.2 -28.95 -10.5
      vertex -0.8 -28.95 -10.5
    endloop
  endfacet
  facet normal 0 1 -0
    outer loop
      vertex -16.8 -28.95 -10.5
      vertex -24.8 -28.95 12.1
      vertex -16.8 -28.95 12.1
    endloop
  endfacet
  facet normal 0 1 0
    outer loop
      vertex -24.8 -28.95 12.1
      vertex -16.8 -28.95 -10.5
      vertex -24.8 -28.95 -10.5
    endloop
  endfacet
  facet normal 0 1 -0
    outer loop
      vertex -34.8 -28.95 -10.5
      vertex -41.75 -28.95 12.1
      vertex -34.8 -28.95 12.1
    endloop
  endfacet
  facet normal 0 1 0
    outer loop
      vertex -34.8 -28.95 -10.5
      vertex -41.75 -28.95 -10.6
      vertex -41.75 -28.95 12.1
    endloop
  endfacet
  facet normal 0 1 0
    outer loop
      vertex -24.8 -28.95 -10.5
      vertex -41.75 -28.95 -10.6
      vertex -34.8 -28.95 -10.5
    endloop
  endfacet
  facet normal 0 -1 0
    outer loop
      vertex -41.75 28.95 -10.6
      vertex 43.65 28.95 12.1
      vertex -41.75 28.95 12.1
    endloop
  endfacet
  facet normal 0 -1 -0
    outer loop
      vertex 43.65 28.95 12.1
      vertex -41.75 28.95 -10.6
      vertex 43.65 28.95 -10.6
    endloop
  endfacet
  facet normal 1 -0 0
    outer loop
      vertex -43.35 -10.6 12.1
      vertex -43.35 10.6 -7.8
      vertex -43.35 10.6 12.1
    endloop
  endfacet
  facet normal 1 0 0
    outer loop
      vertex -43.35 10.6 -7.8
      vertex -43.35 -10.6 12.1
      vertex -43.35 -10.6 -7.8
    endloop
  endfacet
  facet normal 0 1 0
    outer loop
      vertex -41.75 -10.6 12.1
      vertex -43.35 -10.6 -7.8
      vertex -43.35 -10.6 12.1
    endloop
  endfacet
  facet normal 0 1 -0
    outer loop
      vertex -41.75 -10.6 -10.6
      vertex -43.35 -10.6 -7.8
      vertex -41.75 -10.6 12.1
    endloop
  endfacet
  facet normal 0 1 -0
    outer loop
      vertex -43.05 -10.6 -10.6
      vertex -43.35 -10.6 -7.8
      vertex -41.75 -10.6 -10.6
    endloop
  endfacet
  facet normal 0 1 0
    outer loop
      vertex -43.35 -10.6 -7.8
      vertex -43.05 -10.6 -10.6
      vertex -44.3 -10.6 -7.8
    endloop
  endfacet
  facet normal 0 1 0
    outer loop
      vertex -44.3 -10.6 -10.8
      vertex -43.05 -10.6 -10.6
      vertex -43.05 -10.6 -10.8
    endloop
  endfacet
  facet normal 0 1 0
    outer loop
      vertex -43.05 -10.6 -10.6
      vertex -44.3 -10.6 -10.8
      vertex -44.3 -10.6 -7.8
    endloop
  endfacet
  facet normal 0 -1 0
    outer loop
      vertex -44.3 10.6 -7.8
      vertex -43.05 10.6 -10.6
      vertex -43.35 10.6 -7.8
    endloop
  endfacet
  facet normal 0 -1 0
    outer loop
      vertex -44.3 10.6 -10.8
      vertex -43.05 10.6 -10.6
      vertex -44.3 10.6 -7.8
    endloop
  endfacet
  facet normal 0 -1 -0
    outer loop
      vertex -43.05 10.6 -10.6
      vertex -44.3 10.6 -10.8
      vertex -43.05 10.6 -10.8
    endloop
  endfacet
  facet normal 0 -1 0
    outer loop
      vertex -43.35 10.6 -7.8
      vertex -41.75 10.6 12.1
      vertex -43.35 10.6 12.1
    endloop
  endfacet
  facet normal 0 -1 0
    outer loop
      vertex -41.75 10.6 -10.6
      vertex -43.35 10.6 -7.8
      vertex -43.05 10.6 -10.6
    endloop
  endfacet
  facet normal 0 -1 0
    outer loop
      vertex -43.35 10.6 -7.8
      vertex -41.75 10.6 -10.6
      vertex -41.75 10.6 12.1
    endloop
  endfacet
  facet normal 0 0 -1
    outer loop
      vertex -44.3 -10.6 -7.8
      vertex -43.35 10.6 -7.8
      vertex -43.35 -10.6 -7.8
    endloop
  endfacet
  facet normal -0 0 -1
    outer loop
      vertex -43.35 10.6 -7.8
      vertex -44.3 -10.6 -7.8
      vertex -44.3 10.6 -7.8
    endloop
  endfacet
  facet normal -1 0 0
    outer loop
      vertex -43.05 -10.6 -10.8
      vertex -43.05 10.6 -10.6
      vertex -43.05 10.6 -10.8
    endloop
  endfacet
  facet normal -1 -0 0
    outer loop
      vertex -43.05 10.6 -10.6
      vertex -43.05 -10.6 -10.8
      vertex -43.05 -10.6 -10.6
    endloop
  endfacet
  facet normal -0 0 1
    outer loop
      vertex -44.3 10.6 -10.8
      vertex -43.05 -10.6 -10.8
      vertex -43.05 10.6 -10.8
    endloop
  endfacet
  facet normal 0 0 1
    outer loop
      vertex -43.05 -10.6 -10.8
      vertex -44.3 10.6 -10.8
      vertex -44.3 -10.6 -10.8
    endloop
  endfacet
endsolid OpenSCAD_Model
