solid OpenSCAD_Model
  facet normal -1 0 0
    outer loop
      vertex -15.5 -15.5 -2.5
      vertex -15.5 15.5 2.5
      vertex -15.5 15.5 -2.5
    endloop
  endfacet
  facet normal -1 -0 0
    outer loop
      vertex -15.5 15.5 2.5
      vertex -15.5 -15.5 -2.5
      vertex -15.5 -15.5 2.5
    endloop
  endfacet
  facet normal 0 0 1
    outer loop
      vertex 15.5 15.5 2.5
      vertex 14.5 14.5 2.5
      vertex 15.5 -15.5 2.5
    endloop
  endfacet
  facet normal 0 0 1
    outer loop
      vertex 15.5 15.5 2.5
      vertex -14.5 14.5 2.5
      vertex 14.5 14.5 2.5
    endloop
  endfacet
  facet normal 0 0 1
    outer loop
      vertex -14.5 14.5 2.5
      vertex -15.5 15.5 2.5
      vertex -14.5 -14.5 2.5
    endloop
  endfacet
  facet normal -0 0 1
    outer loop
      vertex -15.5 15.5 2.5
      vertex -14.5 14.5 2.5
      vertex 15.5 15.5 2.5
    endloop
  endfacet
  facet normal -0 0 1
    outer loop
      vertex 14.5 -14.5 2.5
      vertex 15.5 -15.5 2.5
      vertex 14.5 14.5 2.5
    endloop
  endfacet
  facet normal -0 0 1
    outer loop
      vertex -14.5 -14.5 2.5
      vertex 15.5 -15.5 2.5
      vertex 14.5 -14.5 2.5
    endloop
  endfacet
  facet normal 0 0 1
    outer loop
      vertex -14.5 -14.5 2.5
      vertex -15.5 -15.5 2.5
      vertex 15.5 -15.5 2.5
    endloop
  endfacet
  facet normal 0 0 1
    outer loop
      vertex -15.5 -15.5 2.5
      vertex -14.5 -14.5 2.5
      vertex -15.5 15.5 2.5
    endloop
  endfacet
  facet normal 1 -0 0
    outer loop
      vertex 15.5 -15.5 2.5
      vertex 15.5 15.5 -2.5
      vertex 15.5 15.5 2.5
    endloop
  endfacet
  facet normal 1 0 0
    outer loop
      vertex 15.5 15.5 -2.5
      vertex 15.5 -15.5 2.5
      vertex 15.5 -15.5 -2.5
    endloop
  endfacet
  facet normal 0 1 -0
    outer loop
      vertex 15.5 15.5 -2.5
      vertex -15.5 15.5 2.5
      vertex 15.5 15.5 2.5
    endloop
  endfacet
  facet normal 0 1 0
    outer loop
      vertex -15.5 15.5 2.5
      vertex 15.5 15.5 -2.5
      vertex -15.5 15.5 -2.5
    endloop
  endfacet
  facet normal 0 0 -1
    outer loop
      vertex 15.5 -15.5 -2.5
      vertex 8.5 0 -2.5
      vertex 15.5 15.5 -2.5
    endloop
  endfacet
  facet normal 0 0 -1
    outer loop
      vertex 15.5 -15.5 -2.5
      vertex 8.39074 -1.03956 -2.5
      vertex 8.5 0 -2.5
    endloop
  endfacet
  facet normal 0 0 -1
    outer loop
      vertex 15.5 -15.5 -2.5
      vertex 8.06773 -2.03368 -2.5
      vertex 8.39074 -1.03956 -2.5
    endloop
  endfacet
  facet normal 0 0 -1
    outer loop
      vertex 15.5 -15.5 -2.5
      vertex 7.54508 -2.93893 -2.5
      vertex 8.06773 -2.03368 -2.5
    endloop
  endfacet
  facet normal 0 0 -1
    outer loop
      vertex 15.5 -15.5 -2.5
      vertex 6.84565 -3.71572 -2.5
      vertex 7.54508 -2.93893 -2.5
    endloop
  endfacet
  facet normal 0 0 -1
    outer loop
      vertex 15.5 -15.5 -2.5
      vertex 6 -4.33013 -2.5
      vertex 6.84565 -3.71572 -2.5
    endloop
  endfacet
  facet normal 0 0 -1
    outer loop
      vertex 15.5 -15.5 -2.5
      vertex 5.04508 -4.75528 -2.5
      vertex 6 -4.33013 -2.5
    endloop
  endfacet
  facet normal 0 0 -1
    outer loop
      vertex 15.5 -15.5 -2.5
      vertex 4.02264 -4.97261 -2.5
      vertex 5.04508 -4.75528 -2.5
    endloop
  endfacet
  facet normal 0 0 -1
    outer loop
      vertex 15.5 -15.5 -2.5
      vertex 2.97736 -4.97261 -2.5
      vertex 4.02264 -4.97261 -2.5
    endloop
  endfacet
  facet normal 0 0 -1
    outer loop
      vertex -15.5 -15.5 -2.5
      vertex 2.97736 -4.97261 -2.5
      vertex 15.5 -15.5 -2.5
    endloop
  endfacet
  facet normal -0 0 -1
    outer loop
      vertex 2.97736 -4.97261 -2.5
      vertex -15.5 -15.5 -2.5
      vertex 1.95491 -4.75528 -2.5
    endloop
  endfacet
  facet normal -0 0 -1
    outer loop
      vertex 1.95491 -4.75528 -2.5
      vertex -15.5 -15.5 -2.5
      vertex 0.999999 -4.33013 -2.5
    endloop
  endfacet
  facet normal -0 0 -1
    outer loop
      vertex -1.39074 -1.03956 -2.5
      vertex -15.5 -15.5 -2.5
      vertex -1.5 0 -2.5
    endloop
  endfacet
  facet normal -0 0 -1
    outer loop
      vertex -1.06773 -2.03368 -2.5
      vertex -15.5 -15.5 -2.5
      vertex -1.39074 -1.03956 -2.5
    endloop
  endfacet
  facet normal -0 0 -1
    outer loop
      vertex -0.545085 -2.93893 -2.5
      vertex -15.5 -15.5 -2.5
      vertex -1.06773 -2.03368 -2.5
    endloop
  endfacet
  facet normal -0 0 -1
    outer loop
      vertex 0.154346 -3.71572 -2.5
      vertex -15.5 -15.5 -2.5
      vertex -0.545085 -2.93893 -2.5
    endloop
  endfacet
  facet normal -0 0 -1
    outer loop
      vertex 0.999999 -4.33013 -2.5
      vertex -15.5 -15.5 -2.5
      vertex 0.154346 -3.71572 -2.5
    endloop
  endfacet
  facet normal 0 0 -1
    outer loop
      vertex 8.39074 1.03956 -2.5
      vertex 15.5 15.5 -2.5
      vertex 8.5 0 -2.5
    endloop
  endfacet
  facet normal 0 0 -1
    outer loop
      vertex 8.06773 2.03368 -2.5
      vertex 15.5 15.5 -2.5
      vertex 8.39074 1.03956 -2.5
    endloop
  endfacet
  facet normal 0 0 -1
    outer loop
      vertex 7.54508 2.93893 -2.5
      vertex 15.5 15.5 -2.5
      vertex 8.06773 2.03368 -2.5
    endloop
  endfacet
  facet normal 0 0 -1
    outer loop
      vertex 6.84565 3.71572 -2.5
      vertex 15.5 15.5 -2.5
      vertex 7.54508 2.93893 -2.5
    endloop
  endfacet
  facet normal 0 0 -1
    outer loop
      vertex 6 4.33013 -2.5
      vertex 15.5 15.5 -2.5
      vertex 6.84565 3.71572 -2.5
    endloop
  endfacet
  facet normal 0 0 -1
    outer loop
      vertex 5.04508 4.75528 -2.5
      vertex 15.5 15.5 -2.5
      vertex 6 4.33013 -2.5
    endloop
  endfacet
  facet normal 0 0 -1
    outer loop
      vertex 4.02264 4.97261 -2.5
      vertex 15.5 15.5 -2.5
      vertex 5.04508 4.75528 -2.5
    endloop
  endfacet
  facet normal 0 0 -1
    outer loop
      vertex 2.97736 4.97261 -2.5
      vertex 15.5 15.5 -2.5
      vertex 4.02264 4.97261 -2.5
    endloop
  endfacet
  facet normal 0 0 -1
    outer loop
      vertex -15.5 15.5 -2.5
      vertex 2.97736 4.97261 -2.5
      vertex 1.95491 4.75528 -2.5
    endloop
  endfacet
  facet normal 0 0 -1
    outer loop
      vertex -15.5 15.5 -2.5
      vertex 1.95491 4.75528 -2.5
      vertex 1 4.33013 -2.5
    endloop
  endfacet
  facet normal 0 0 -1
    outer loop
      vertex -15.5 15.5 -2.5
      vertex 1 4.33013 -2.5
      vertex 0.154346 3.71572 -2.5
    endloop
  endfacet
  facet normal 0 0 -1
    outer loop
      vertex -15.5 15.5 -2.5
      vertex -1.5 0 -2.5
      vertex -15.5 -15.5 -2.5
    endloop
  endfacet
  facet normal 0 0 -1
    outer loop
      vertex -1.5 0 -2.5
      vertex -15.5 15.5 -2.5
      vertex -1.39074 1.03956 -2.5
    endloop
  endfacet
  facet normal 0 0 -1
    outer loop
      vertex -1.39074 1.03956 -2.5
      vertex -15.5 15.5 -2.5
      vertex -1.06773 2.03368 -2.5
    endloop
  endfacet
  facet normal 0 0 -1
    outer loop
      vertex 2.97736 4.97261 -2.5
      vertex -15.5 15.5 -2.5
      vertex 15.5 15.5 -2.5
    endloop
  endfacet
  facet normal 0 0 -1
    outer loop
      vertex -0.545085 2.93893 -2.5
      vertex -15.5 15.5 -2.5
      vertex 0.154346 3.71572 -2.5
    endloop
  endfacet
  facet normal 0 0 -1
    outer loop
      vertex -1.06773 2.03368 -2.5
      vertex -15.5 15.5 -2.5
      vertex -0.545085 2.93893 -2.5
    endloop
  endfacet
  facet normal 0 -1 0
    outer loop
      vertex -15.5 -15.5 -2.5
      vertex 15.5 -15.5 2.5
      vertex -15.5 -15.5 2.5
    endloop
  endfacet
  facet normal 0 -1 -0
    outer loop
      vertex 15.5 -15.5 2.5
      vertex -15.5 -15.5 -2.5
      vertex 15.5 -15.5 -2.5
    endloop
  endfacet
  facet normal 1 -0 0
    outer loop
      vertex -14.5 -14.5 2.5
      vertex -14.5 14.5 -1.5
      vertex -14.5 14.5 2.5
    endloop
  endfacet
  facet normal 1 0 0
    outer loop
      vertex -14.5 14.5 -1.5
      vertex -14.5 -14.5 2.5
      vertex -14.5 -14.5 -1.5
    endloop
  endfacet
  facet normal -1 0 0
    outer loop
      vertex 14.5 -14.5 -1.5
      vertex 14.5 14.5 2.5
      vertex 14.5 14.5 -1.5
    endloop
  endfacet
  facet normal -1 -0 0
    outer loop
      vertex 14.5 14.5 2.5
      vertex 14.5 -14.5 -1.5
      vertex 14.5 -14.5 2.5
    endloop
  endfacet
  facet normal 0 0 1
    outer loop
      vertex 14.5 14.5 -1.5
      vertex 8.5 0 -1.5
      vertex 14.5 -14.5 -1.5
    endloop
  endfacet
  facet normal 0 0 1
    outer loop
      vertex 14.5 14.5 -1.5
      vertex 8.39074 1.03956 -1.5
      vertex 8.5 0 -1.5
    endloop
  endfacet
  facet normal 0 0 1
    outer loop
      vertex 14.5 14.5 -1.5
      vertex 8.06773 2.03368 -1.5
      vertex 8.39074 1.03956 -1.5
    endloop
  endfacet
  facet normal 0 0 1
    outer loop
      vertex 14.5 14.5 -1.5
      vertex 7.54508 2.93893 -1.5
      vertex 8.06773 2.03368 -1.5
    endloop
  endfacet
  facet normal 0 0 1
    outer loop
      vertex 14.5 14.5 -1.5
      vertex 6.84565 3.71572 -1.5
      vertex 7.54508 2.93893 -1.5
    endloop
  endfacet
  facet normal 0 0 1
    outer loop
      vertex 14.5 14.5 -1.5
      vertex 6 4.33013 -1.5
      vertex 6.84565 3.71572 -1.5
    endloop
  endfacet
  facet normal 0 0 1
    outer loop
      vertex 14.5 14.5 -1.5
      vertex 5.04508 4.75528 -1.5
      vertex 6 4.33013 -1.5
    endloop
  endfacet
  facet normal 0 0 1
    outer loop
      vertex 14.5 14.5 -1.5
      vertex 4.02264 4.97261 -1.5
      vertex 5.04508 4.75528 -1.5
    endloop
  endfacet
  facet normal 0 0 1
    outer loop
      vertex 14.5 14.5 -1.5
      vertex 2.97736 4.97261 -1.5
      vertex 4.02264 4.97261 -1.5
    endloop
  endfacet
  facet normal -0 0 1
    outer loop
      vertex -14.5 14.5 -1.5
      vertex 2.97736 4.97261 -1.5
      vertex 14.5 14.5 -1.5
    endloop
  endfacet
  facet normal 0 0 1
    outer loop
      vertex 2.97736 4.97261 -1.5
      vertex -14.5 14.5 -1.5
      vertex 1.95491 4.75528 -1.5
    endloop
  endfacet
  facet normal 0 0 1
    outer loop
      vertex 1.95491 4.75528 -1.5
      vertex -14.5 14.5 -1.5
      vertex 1 4.33013 -1.5
    endloop
  endfacet
  facet normal 0 0 1
    outer loop
      vertex -1.39074 1.03956 -1.5
      vertex -14.5 14.5 -1.5
      vertex -1.5 0 -1.5
    endloop
  endfacet
  facet normal 0 0 1
    outer loop
      vertex -1.06773 2.03368 -1.5
      vertex -14.5 14.5 -1.5
      vertex -1.39074 1.03956 -1.5
    endloop
  endfacet
  facet normal 0 0 1
    outer loop
      vertex -0.545085 2.93893 -1.5
      vertex -14.5 14.5 -1.5
      vertex -1.06773 2.03368 -1.5
    endloop
  endfacet
  facet normal 0 0 1
    outer loop
      vertex 0.154346 3.71572 -1.5
      vertex -14.5 14.5 -1.5
      vertex -0.545085 2.93893 -1.5
    endloop
  endfacet
  facet normal 0 0 1
    outer loop
      vertex 1 4.33013 -1.5
      vertex -14.5 14.5 -1.5
      vertex 0.154346 3.71572 -1.5
    endloop
  endfacet
  facet normal -0 0 1
    outer loop
      vertex 8.39074 -1.03956 -1.5
      vertex 14.5 -14.5 -1.5
      vertex 8.5 0 -1.5
    endloop
  endfacet
  facet normal -0 0 1
    outer loop
      vertex 8.06773 -2.03368 -1.5
      vertex 14.5 -14.5 -1.5
      vertex 8.39074 -1.03956 -1.5
    endloop
  endfacet
  facet normal -0 0 1
    outer loop
      vertex 7.54508 -2.93893 -1.5
      vertex 14.5 -14.5 -1.5
      vertex 8.06773 -2.03368 -1.5
    endloop
  endfacet
  facet normal -0 0 1
    outer loop
      vertex 6.84565 -3.71572 -1.5
      vertex 14.5 -14.5 -1.5
      vertex 7.54508 -2.93893 -1.5
    endloop
  endfacet
  facet normal -0 0 1
    outer loop
      vertex 6 -4.33013 -1.5
      vertex 14.5 -14.5 -1.5
      vertex 6.84565 -3.71572 -1.5
    endloop
  endfacet
  facet normal -0 0 1
    outer loop
      vertex 5.04508 -4.75528 -1.5
      vertex 14.5 -14.5 -1.5
      vertex 6 -4.33013 -1.5
    endloop
  endfacet
  facet normal -0 0 1
    outer loop
      vertex 4.02264 -4.97261 -1.5
      vertex 14.5 -14.5 -1.5
      vertex 5.04508 -4.75528 -1.5
    endloop
  endfacet
  facet normal -0 0 1
    outer loop
      vertex 2.97736 -4.97261 -1.5
      vertex 14.5 -14.5 -1.5
      vertex 4.02264 -4.97261 -1.5
    endloop
  endfacet
  facet normal 0 0 1
    outer loop
      vertex -14.5 -14.5 -1.5
      vertex 2.97736 -4.97261 -1.5
      vertex 1.95491 -4.75528 -1.5
    endloop
  endfacet
  facet normal 0 0 1
    outer loop
      vertex -14.5 -14.5 -1.5
      vertex 1.95491 -4.75528 -1.5
      vertex 0.999999 -4.33013 -1.5
    endloop
  endfacet
  facet normal 0 0 1
    outer loop
      vertex -14.5 -14.5 -1.5
      vertex 0.999999 -4.33013 -1.5
      vertex 0.154346 -3.71572 -1.5
    endloop
  endfacet
  facet normal 0 0 1
    outer loop
      vertex -14.5 -14.5 -1.5
      vertex -1.5 0 -1.5
      vertex -14.5 14.5 -1.5
    endloop
  endfacet
  facet normal 0 0 1
    outer loop
      vertex -1.5 0 -1.5
      vertex -14.5 -14.5 -1.5
      vertex -1.39074 -1.03956 -1.5
    endloop
  endfacet
  facet normal 0 0 1
    outer loop
      vertex -1.39074 -1.03956 -1.5
      vertex -14.5 -14.5 -1.5
      vertex -1.06773 -2.03368 -1.5
    endloop
  endfacet
  facet normal 0 0 1
    outer loop
      vertex 2.97736 -4.97261 -1.5
      vertex -14.5 -14.5 -1.5
      vertex 14.5 -14.5 -1.5
    endloop
  endfacet
  facet normal 0 0 1
    outer loop
      vertex -0.545085 -2.93893 -1.5
      vertex -14.5 -14.5 -1.5
      vertex 0.154346 -3.71572 -1.5
    endloop
  endfacet
  facet normal 0 0 1
    outer loop
      vertex -1.06773 -2.03368 -1.5
      vertex -14.5 -14.5 -1.5
      vertex -0.545085 -2.93893 -1.5
    endloop
  endfacet
  facet normal 0 1 -0
    outer loop
      vertex 14.5 -14.5 -1.5
      vertex -14.5 -14.5 2.5
      vertex 14.5 -14.5 2.5
    endloop
  endfacet
  facet normal 0 1 0
    outer loop
      vertex -14.5 -14.5 2.5
      vertex 14.5 -14.5 -1.5
      vertex -14.5 -14.5 -1.5
    endloop
  endfacet
  facet normal 0 -1 0
    outer loop
      vertex -14.5 14.5 -1.5
      vertex 14.5 14.5 2.5
      vertex -14.5 14.5 2.5
    endloop
  endfacet
  facet normal 0 -1 -0
    outer loop
      vertex 14.5 14.5 2.5
      vertex -14.5 14.5 -1.5
      vertex 14.5 14.5 -1.5
    endloop
  endfacet
  facet normal -0.866025 -0.5 0
    outer loop
      vertex 8.06773 2.03368 -2.5
      vertex 7.54508 2.93893 -1.5
      vertex 7.54508 2.93893 -2.5
    endloop
  endfacet
  facet normal -0.866025 -0.5 0
    outer loop
      vertex 7.54508 2.93893 -1.5
      vertex 8.06773 2.03368 -2.5
      vertex 8.06773 2.03368 -1.5
    endloop
  endfacet
  facet normal -0.743145 -0.669131 0
    outer loop
      vertex 7.54508 2.93893 -2.5
      vertex 6.84565 3.71572 -1.5
      vertex 6.84565 3.71572 -2.5
    endloop
  endfacet
  facet normal -0.743145 -0.669131 0
    outer loop
      vertex 6.84565 3.71572 -1.5
      vertex 7.54508 2.93893 -2.5
      vertex 7.54508 2.93893 -1.5
    endloop
  endfacet
  facet normal 0.207911 -0.978148 0
    outer loop
      vertex 1.95491 4.75528 -2.5
      vertex 2.97736 4.97261 -1.5
      vertex 1.95491 4.75528 -1.5
    endloop
  endfacet
  facet normal 0.207911 -0.978148 0
    outer loop
      vertex 2.97736 4.97261 -1.5
      vertex 1.95491 4.75528 -2.5
      vertex 2.97736 4.97261 -2.5
    endloop
  endfacet
  facet normal 0.866025 -0.5 0
    outer loop
      vertex -1.06773 2.03368 -1.5
      vertex -0.545085 2.93893 -2.5
      vertex -0.545085 2.93893 -1.5
    endloop
  endfacet
  facet normal 0.866025 -0.5 0
    outer loop
      vertex -0.545085 2.93893 -2.5
      vertex -1.06773 2.03368 -1.5
      vertex -1.06773 2.03368 -2.5
    endloop
  endfacet
  facet normal -0.994522 0.104529 0
    outer loop
      vertex 8.39074 -1.03956 -2.5
      vertex 8.5 0 -1.5
      vertex 8.5 0 -2.5
    endloop
  endfacet
  facet normal -0.994522 0.104529 0
    outer loop
      vertex 8.5 0 -1.5
      vertex 8.39074 -1.03956 -2.5
      vertex 8.39074 -1.03956 -1.5
    endloop
  endfacet
  facet normal -0.951057 -0.309017 0
    outer loop
      vertex 8.39074 1.03956 -2.5
      vertex 8.06773 2.03368 -1.5
      vertex 8.06773 2.03368 -2.5
    endloop
  endfacet
  facet normal -0.951057 -0.309017 0
    outer loop
      vertex 8.06773 2.03368 -1.5
      vertex 8.39074 1.03956 -2.5
      vertex 8.39074 1.03956 -1.5
    endloop
  endfacet
  facet normal -0.587785 -0.809017 0
    outer loop
      vertex 6 4.33013 -2.5
      vertex 6.84565 3.71572 -1.5
      vertex 6 4.33013 -1.5
    endloop
  endfacet
  facet normal -0.587785 -0.809017 -0
    outer loop
      vertex 6.84565 3.71572 -1.5
      vertex 6 4.33013 -2.5
      vertex 6.84565 3.71572 -2.5
    endloop
  endfacet
  facet normal 0 -1 0
    outer loop
      vertex 2.97736 4.97261 -2.5
      vertex 4.02264 4.97261 -1.5
      vertex 2.97736 4.97261 -1.5
    endloop
  endfacet
  facet normal 0 -1 -0
    outer loop
      vertex 4.02264 4.97261 -1.5
      vertex 2.97736 4.97261 -2.5
      vertex 4.02264 4.97261 -2.5
    endloop
  endfacet
  facet normal -0.406737 -0.913545 0
    outer loop
      vertex 5.04508 4.75528 -2.5
      vertex 6 4.33013 -1.5
      vertex 5.04508 4.75528 -1.5
    endloop
  endfacet
  facet normal -0.406737 -0.913545 -0
    outer loop
      vertex 6 4.33013 -1.5
      vertex 5.04508 4.75528 -2.5
      vertex 6 4.33013 -2.5
    endloop
  endfacet
  facet normal 0.994522 -0.104529 0
    outer loop
      vertex -1.5 0 -1.5
      vertex -1.39074 1.03956 -2.5
      vertex -1.39074 1.03956 -1.5
    endloop
  endfacet
  facet normal 0.994522 -0.104529 0
    outer loop
      vertex -1.39074 1.03956 -2.5
      vertex -1.5 0 -1.5
      vertex -1.5 0 -2.5
    endloop
  endfacet
  facet normal 0.743145 -0.66913 0
    outer loop
      vertex -0.545085 2.93893 -1.5
      vertex 0.154346 3.71572 -2.5
      vertex 0.154346 3.71572 -1.5
    endloop
  endfacet
  facet normal 0.743145 -0.66913 0
    outer loop
      vertex 0.154346 3.71572 -2.5
      vertex -0.545085 2.93893 -1.5
      vertex -0.545085 2.93893 -2.5
    endloop
  endfacet
  facet normal 0.406737 -0.913545 0
    outer loop
      vertex 1 4.33013 -2.5
      vertex 1.95491 4.75528 -1.5
      vertex 1 4.33013 -1.5
    endloop
  endfacet
  facet normal 0.406737 -0.913545 0
    outer loop
      vertex 1.95491 4.75528 -1.5
      vertex 1 4.33013 -2.5
      vertex 1.95491 4.75528 -2.5
    endloop
  endfacet
  facet normal 0.587785 -0.809017 0
    outer loop
      vertex 0.154346 3.71572 -2.5
      vertex 1 4.33013 -1.5
      vertex 0.154346 3.71572 -1.5
    endloop
  endfacet
  facet normal 0.587785 -0.809017 0
    outer loop
      vertex 1 4.33013 -1.5
      vertex 0.154346 3.71572 -2.5
      vertex 1 4.33013 -2.5
    endloop
  endfacet
  facet normal -0.994522 -0.104529 0
    outer loop
      vertex 8.5 0 -2.5
      vertex 8.39074 1.03956 -1.5
      vertex 8.39074 1.03956 -2.5
    endloop
  endfacet
  facet normal -0.994522 -0.104529 0
    outer loop
      vertex 8.39074 1.03956 -1.5
      vertex 8.5 0 -2.5
      vertex 8.5 0 -1.5
    endloop
  endfacet
  facet normal -0.587785 0.809017 0
    outer loop
      vertex 6.84565 -3.71572 -2.5
      vertex 6 -4.33013 -1.5
      vertex 6.84565 -3.71572 -1.5
    endloop
  endfacet
  facet normal -0.587785 0.809017 0
    outer loop
      vertex 6 -4.33013 -1.5
      vertex 6.84565 -3.71572 -2.5
      vertex 6 -4.33013 -2.5
    endloop
  endfacet
  facet normal -0.207911 -0.978148 0
    outer loop
      vertex 4.02264 4.97261 -2.5
      vertex 5.04508 4.75528 -1.5
      vertex 4.02264 4.97261 -1.5
    endloop
  endfacet
  facet normal -0.207911 -0.978148 -0
    outer loop
      vertex 5.04508 4.75528 -1.5
      vertex 4.02264 4.97261 -2.5
      vertex 5.04508 4.75528 -2.5
    endloop
  endfacet
  facet normal 0.951057 -0.309017 0
    outer loop
      vertex -1.39074 1.03956 -1.5
      vertex -1.06773 2.03368 -2.5
      vertex -1.06773 2.03368 -1.5
    endloop
  endfacet
  facet normal 0.951057 -0.309017 0
    outer loop
      vertex -1.06773 2.03368 -2.5
      vertex -1.39074 1.03956 -1.5
      vertex -1.39074 1.03956 -2.5
    endloop
  endfacet
  facet normal -0.951057 0.309017 0
    outer loop
      vertex 8.06773 -2.03368 -2.5
      vertex 8.39074 -1.03956 -1.5
      vertex 8.39074 -1.03956 -2.5
    endloop
  endfacet
  facet normal -0.951057 0.309017 0
    outer loop
      vertex 8.39074 -1.03956 -1.5
      vertex 8.06773 -2.03368 -2.5
      vertex 8.06773 -2.03368 -1.5
    endloop
  endfacet
  facet normal -0.866025 0.5 0
    outer loop
      vertex 7.54508 -2.93893 -2.5
      vertex 8.06773 -2.03368 -1.5
      vertex 8.06773 -2.03368 -2.5
    endloop
  endfacet
  facet normal -0.866025 0.5 0
    outer loop
      vertex 8.06773 -2.03368 -1.5
      vertex 7.54508 -2.93893 -2.5
      vertex 7.54508 -2.93893 -1.5
    endloop
  endfacet
  facet normal 0.207911 0.978148 -0
    outer loop
      vertex 2.97736 -4.97261 -2.5
      vertex 1.95491 -4.75528 -1.5
      vertex 2.97736 -4.97261 -1.5
    endloop
  endfacet
  facet normal 0.207911 0.978148 0
    outer loop
      vertex 1.95491 -4.75528 -1.5
      vertex 2.97736 -4.97261 -2.5
      vertex 1.95491 -4.75528 -2.5
    endloop
  endfacet
  facet normal 0.994522 0.104529 0
    outer loop
      vertex -1.39074 -1.03956 -1.5
      vertex -1.5 0 -2.5
      vertex -1.5 0 -1.5
    endloop
  endfacet
  facet normal 0.994522 0.104529 0
    outer loop
      vertex -1.5 0 -2.5
      vertex -1.39074 -1.03956 -1.5
      vertex -1.39074 -1.03956 -2.5
    endloop
  endfacet
  facet normal 0.866025 0.5 0
    outer loop
      vertex -0.545085 -2.93893 -1.5
      vertex -1.06773 -2.03368 -2.5
      vertex -1.06773 -2.03368 -1.5
    endloop
  endfacet
  facet normal 0.866025 0.5 0
    outer loop
      vertex -1.06773 -2.03368 -2.5
      vertex -0.545085 -2.93893 -1.5
      vertex -0.545085 -2.93893 -2.5
    endloop
  endfacet
  facet normal -0.207911 0.978148 0
    outer loop
      vertex 5.04508 -4.75528 -2.5
      vertex 4.02264 -4.97261 -1.5
      vertex 5.04508 -4.75528 -1.5
    endloop
  endfacet
  facet normal -0.207911 0.978148 0
    outer loop
      vertex 4.02264 -4.97261 -1.5
      vertex 5.04508 -4.75528 -2.5
      vertex 4.02264 -4.97261 -2.5
    endloop
  endfacet
  facet normal -0.406737 0.913545 0
    outer loop
      vertex 6 -4.33013 -2.5
      vertex 5.04508 -4.75528 -1.5
      vertex 6 -4.33013 -1.5
    endloop
  endfacet
  facet normal -0.406737 0.913545 0
    outer loop
      vertex 5.04508 -4.75528 -1.5
      vertex 6 -4.33013 -2.5
      vertex 5.04508 -4.75528 -2.5
    endloop
  endfacet
  facet normal -0.743145 0.669131 0
    outer loop
      vertex 6.84565 -3.71572 -2.5
      vertex 7.54508 -2.93893 -1.5
      vertex 7.54508 -2.93893 -2.5
    endloop
  endfacet
  facet normal -0.743145 0.669131 0
    outer loop
      vertex 7.54508 -2.93893 -1.5
      vertex 6.84565 -3.71572 -2.5
      vertex 6.84565 -3.71572 -1.5
    endloop
  endfacet
  facet normal 0.587785 0.809017 -0
    outer loop
      vertex 0.999999 -4.33013 -2.5
      vertex 0.154346 -3.71572 -1.5
      vertex 0.999999 -4.33013 -1.5
    endloop
  endfacet
  facet normal 0.587785 0.809017 0
    outer loop
      vertex 0.154346 -3.71572 -1.5
      vertex 0.999999 -4.33013 -2.5
      vertex 0.154346 -3.71572 -2.5
    endloop
  endfacet
  facet normal 0 1 -0
    outer loop
      vertex 4.02264 -4.97261 -2.5
      vertex 2.97736 -4.97261 -1.5
      vertex 4.02264 -4.97261 -1.5
    endloop
  endfacet
  facet normal 0 1 0
    outer loop
      vertex 2.97736 -4.97261 -1.5
      vertex 4.02264 -4.97261 -2.5
      vertex 2.97736 -4.97261 -2.5
    endloop
  endfacet
  facet normal 0.406737 0.913545 -0
    outer loop
      vertex 1.95491 -4.75528 -2.5
      vertex 0.999999 -4.33013 -1.5
      vertex 1.95491 -4.75528 -1.5
    endloop
  endfacet
  facet normal 0.406737 0.913545 0
    outer loop
      vertex 0.999999 -4.33013 -1.5
      vertex 1.95491 -4.75528 -2.5
      vertex 0.999999 -4.33013 -2.5
    endloop
  endfacet
  facet normal 0.951057 0.309017 0
    outer loop
      vertex -1.06773 -2.03368 -1.5
      vertex -1.39074 -1.03956 -2.5
      vertex -1.39074 -1.03956 -1.5
    endloop
  endfacet
  facet normal 0.951057 0.309017 0
    outer loop
      vertex -1.39074 -1.03956 -2.5
      vertex -1.06773 -2.03368 -1.5
      vertex -1.06773 -2.03368 -2.5
    endloop
  endfacet
  facet normal 0.743145 0.66913 0
    outer loop
      vertex 0.154346 -3.71572 -1.5
      vertex -0.545085 -2.93893 -2.5
      vertex -0.545085 -2.93893 -1.5
    endloop
  endfacet
  facet normal 0.743145 0.66913 0
    outer loop
      vertex -0.545085 -2.93893 -2.5
      vertex 0.154346 -3.71572 -1.5
      vertex 0.154346 -3.71572 -2.5
    endloop
  endfacet
endsolid OpenSCAD_Model
