solid OpenSCAD_Model
  facet normal -1 0 0
    outer loop
      vertex -7.25 -6.81096 -3.5
      vertex -7.25 -11.25 19
      vertex -7.25 -6.81096 19
    endloop
  endfacet
  facet normal -1 0 0
    outer loop
      vertex -7.25 -12.25 -3.5
      vertex -7.25 -11.25 19
      vertex -7.25 -6.81096 -3.5
    endloop
  endfacet
  facet normal -1 0 0
    outer loop
      vertex -7.25 -12.25 26
      vertex -7.25 -11.25 19
      vertex -7.25 -12.25 -3.5
    endloop
  endfacet
  facet normal -1 0 0
    outer loop
      vertex -7.25 -11.25 19
      vertex -7.25 -12.25 26
      vertex -7.25 -11.25 26
    endloop
  endfacet
  facet normal -1 0 0
    outer loop
      vertex -7.25 6.81096 -3.5
      vertex -7.25 12.25 19
      vertex -7.25 12.25 -3.5
    endloop
  endfacet
  facet normal -1 -0 0
    outer loop
      vertex -7.25 12.25 19
      vertex -7.25 6.81096 -3.5
      vertex -7.25 6.81096 19
    endloop
  endfacet
  facet normal 0 0 1
    outer loop
      vertex -9.13545 4.06737 19
      vertex -7.25 6.81096 19
      vertex -8.09017 5.87785 19
    endloop
  endfacet
  facet normal 0 0 1
    outer loop
      vertex -9.78148 2.07912 19
      vertex -7.25 6.81096 19
      vertex -9.13545 4.06737 19
    endloop
  endfacet
  facet normal 0 0 1
    outer loop
      vertex -7.25 6.81096 19
      vertex -9.78148 2.07912 19
      vertex -7.25 -6.81096 19
    endloop
  endfacet
  facet normal 0 0 1
    outer loop
      vertex -7.25 -6.81096 19
      vertex -9.13545 -4.06737 19
      vertex -8.09017 -5.87785 19
    endloop
  endfacet
  facet normal -0 0 1
    outer loop
      vertex -9.78148 -2.07912 19
      vertex -7.25 -6.81096 19
      vertex -9.78148 2.07912 19
    endloop
  endfacet
  facet normal 0 0 1
    outer loop
      vertex -7.25 -6.81096 19
      vertex -9.78148 -2.07912 19
      vertex -9.13545 -4.06737 19
    endloop
  endfacet
  facet normal 0 -0 1
    outer loop
      vertex -9.78148 -2.07912 19
      vertex -9.78148 2.07912 19
      vertex -10 0 19
    endloop
  endfacet
  facet normal -0 0 1
    outer loop
      vertex 6.25 11.25 19
      vertex 7.25 6.81096 19
      vertex 7.25 12.25 19
    endloop
  endfacet
  facet normal 0 0 1
    outer loop
      vertex 7.25 6.81096 19
      vertex 6.25 11.25 19
      vertex 7.25 -6.81096 19
    endloop
  endfacet
  facet normal 0 0 1
    outer loop
      vertex 6.25 -11.25 19
      vertex 7.25 -6.81096 19
      vertex 6.25 11.25 19
    endloop
  endfacet
  facet normal 0 0 1
    outer loop
      vertex 7.25 12.25 19
      vertex -6.25 11.25 19
      vertex 6.25 11.25 19
    endloop
  endfacet
  facet normal -0 0 1
    outer loop
      vertex -7.25 12.25 19
      vertex -6.25 11.25 19
      vertex 7.25 12.25 19
    endloop
  endfacet
  facet normal 0 0 1
    outer loop
      vertex -7.25 6.81096 19
      vertex -6.25 11.25 19
      vertex -7.25 12.25 19
    endloop
  endfacet
  facet normal 0 0 1
    outer loop
      vertex -6.25 11.25 19
      vertex -7.25 6.81096 19
      vertex -6.25 -11.25 19
    endloop
  endfacet
  facet normal -0 0 1
    outer loop
      vertex -7.25 -6.81096 19
      vertex -6.25 -11.25 19
      vertex -7.25 6.81096 19
    endloop
  endfacet
  facet normal 0 0 1
    outer loop
      vertex -6.25 -11.25 19
      vertex -7.25 -6.81096 19
      vertex -7.25 -11.25 19
    endloop
  endfacet
  facet normal 0 0 1
    outer loop
      vertex 9.78148 2.07912 19
      vertex 9.78148 -2.07912 19
      vertex 10 0 19
    endloop
  endfacet
  facet normal 0 0 1
    outer loop
      vertex 7.25 6.81096 19
      vertex 9.78148 2.07912 19
      vertex 9.13545 4.06737 19
    endloop
  endfacet
  facet normal 0 0 1
    outer loop
      vertex 9.78148 2.07912 19
      vertex 7.25 6.81096 19
      vertex 9.78148 -2.07912 19
    endloop
  endfacet
  facet normal 0 0 1
    outer loop
      vertex 7.25 6.81096 19
      vertex 9.13545 4.06737 19
      vertex 8.09017 5.87785 19
    endloop
  endfacet
  facet normal 0 0 1
    outer loop
      vertex 7.25 -6.81096 19
      vertex 9.78148 -2.07912 19
      vertex 7.25 6.81096 19
    endloop
  endfacet
  facet normal 0 0 1
    outer loop
      vertex 9.78148 -2.07912 19
      vertex 7.25 -6.81096 19
      vertex 9.13545 -4.06737 19
    endloop
  endfacet
  facet normal 0 0 1
    outer loop
      vertex 9.13545 -4.06737 19
      vertex 7.25 -6.81096 19
      vertex 8.09017 -5.87785 19
    endloop
  endfacet
  facet normal 0 0 1
    outer loop
      vertex 7.25 -6.81096 19
      vertex 6.25 -11.25 19
      vertex 7.25 -11.25 19
    endloop
  endfacet
  facet normal 1 0 0
    outer loop
      vertex 7.25 -11.25 26
      vertex 7.25 -12.25 26
      vertex 7.25 -11.25 19
    endloop
  endfacet
  facet normal 1 -0 0
    outer loop
      vertex 7.25 -11.25 19
      vertex 7.25 -6.81096 -3.5
      vertex 7.25 -6.81096 19
    endloop
  endfacet
  facet normal 1 0 0
    outer loop
      vertex 7.25 -11.25 19
      vertex 7.25 -12.25 -3.5
      vertex 7.25 -6.81096 -3.5
    endloop
  endfacet
  facet normal 1 0 0
    outer loop
      vertex 7.25 -12.25 -3.5
      vertex 7.25 -11.25 19
      vertex 7.25 -12.25 26
    endloop
  endfacet
  facet normal 1 -0 0
    outer loop
      vertex 7.25 6.81096 19
      vertex 7.25 12.25 -3.5
      vertex 7.25 12.25 19
    endloop
  endfacet
  facet normal 1 0 0
    outer loop
      vertex 7.25 12.25 -3.5
      vertex 7.25 6.81096 19
      vertex 7.25 6.81096 -3.5
    endloop
  endfacet
  facet normal 0 1 -0
    outer loop
      vertex 7.25 12.25 -3.5
      vertex -7.25 12.25 19
      vertex 7.25 12.25 19
    endloop
  endfacet
  facet normal 0 1 0
    outer loop
      vertex -7.25 12.25 19
      vertex 7.25 12.25 -3.5
      vertex -7.25 12.25 -3.5
    endloop
  endfacet
  facet normal 0 -1 0
    outer loop
      vertex -7.25 -12.25 26
      vertex -0.313585 -12.25 24.9836
      vertex 7.25 -12.25 26
    endloop
  endfacet
  facet normal 0 -1 0
    outer loop
      vertex -7.25 -12.25 26
      vertex -0.927051 -12.25 24.8532
      vertex -0.313585 -12.25 24.9836
    endloop
  endfacet
  facet normal 0 -1 0
    outer loop
      vertex -7.25 -12.25 26
      vertex -1.5 -12.25 24.5981
      vertex -0.927051 -12.25 24.8532
    endloop
  endfacet
  facet normal 0 -1 0
    outer loop
      vertex -7.25 -12.25 26
      vertex -2.00739 -12.25 24.2294
      vertex -1.5 -12.25 24.5981
    endloop
  endfacet
  facet normal 0 -1 0
    outer loop
      vertex -7.25 -12.25 26
      vertex -2.42705 -12.25 23.7634
      vertex -2.00739 -12.25 24.2294
    endloop
  endfacet
  facet normal 0 -1 0
    outer loop
      vertex -7.25 -12.25 26
      vertex -2.74064 -12.25 23.2202
      vertex -2.42705 -12.25 23.7634
    endloop
  endfacet
  facet normal 0 -1 0
    outer loop
      vertex -7.25 -12.25 26
      vertex -2.93444 -12.25 22.6237
      vertex -2.74064 -12.25 23.2202
    endloop
  endfacet
  facet normal 0 -1 0
    outer loop
      vertex -7.25 -12.25 26
      vertex -3 -12.25 22
      vertex -2.93444 -12.25 22.6237
    endloop
  endfacet
  facet normal 0 -1 0
    outer loop
      vertex -7.25 -12.25 26
      vertex -2.93444 -12.25 21.3763
      vertex -3 -12.25 22
    endloop
  endfacet
  facet normal 0 -1 0
    outer loop
      vertex -7.25 -12.25 26
      vertex -2.74064 -12.25 20.7798
      vertex -2.93444 -12.25 21.3763
    endloop
  endfacet
  facet normal 0 -1 0
    outer loop
      vertex -7.25 -12.25 -3.5
      vertex -2.74064 -12.25 20.7798
      vertex -7.25 -12.25 26
    endloop
  endfacet
  facet normal 0 -1 -0
    outer loop
      vertex -0.313585 -12.25 19.0164
      vertex -7.25 -12.25 -3.5
      vertex 0.313585 -12.25 19.0164
    endloop
  endfacet
  facet normal 0 -1 -0
    outer loop
      vertex -0.927051 -12.25 19.1468
      vertex -7.25 -12.25 -3.5
      vertex -0.313585 -12.25 19.0164
    endloop
  endfacet
  facet normal 0 -1 -0
    outer loop
      vertex -1.5 -12.25 19.4019
      vertex -7.25 -12.25 -3.5
      vertex -0.927051 -12.25 19.1468
    endloop
  endfacet
  facet normal 0 -1 -0
    outer loop
      vertex -2.00739 -12.25 19.7706
      vertex -7.25 -12.25 -3.5
      vertex -1.5 -12.25 19.4019
    endloop
  endfacet
  facet normal 0 -1 -0
    outer loop
      vertex -2.42705 -12.25 20.2366
      vertex -7.25 -12.25 -3.5
      vertex -2.00739 -12.25 19.7706
    endloop
  endfacet
  facet normal 0 -1 -0
    outer loop
      vertex -2.74064 -12.25 20.7798
      vertex -7.25 -12.25 -3.5
      vertex -2.42705 -12.25 20.2366
    endloop
  endfacet
  facet normal 0 -1 0
    outer loop
      vertex 0.313585 -12.25 24.9836
      vertex 7.25 -12.25 26
      vertex -0.313585 -12.25 24.9836
    endloop
  endfacet
  facet normal 0 -1 0
    outer loop
      vertex 0.927051 -12.25 24.8532
      vertex 7.25 -12.25 26
      vertex 0.313585 -12.25 24.9836
    endloop
  endfacet
  facet normal 0 -1 0
    outer loop
      vertex 1.5 -12.25 24.5981
      vertex 7.25 -12.25 26
      vertex 0.927051 -12.25 24.8532
    endloop
  endfacet
  facet normal 0 -1 0
    outer loop
      vertex 2.00739 -12.25 24.2294
      vertex 7.25 -12.25 26
      vertex 1.5 -12.25 24.5981
    endloop
  endfacet
  facet normal 0 -1 0
    outer loop
      vertex 2.42705 -12.25 23.7634
      vertex 7.25 -12.25 26
      vertex 2.00739 -12.25 24.2294
    endloop
  endfacet
  facet normal 0 -1 0
    outer loop
      vertex 2.74064 -12.25 23.2202
      vertex 7.25 -12.25 26
      vertex 2.42705 -12.25 23.7634
    endloop
  endfacet
  facet normal 0 -1 0
    outer loop
      vertex 2.93444 -12.25 22.6237
      vertex 7.25 -12.25 26
      vertex 2.74064 -12.25 23.2202
    endloop
  endfacet
  facet normal 0 -1 0
    outer loop
      vertex 3 -12.25 22
      vertex 7.25 -12.25 26
      vertex 2.93444 -12.25 22.6237
    endloop
  endfacet
  facet normal 0 -1 0
    outer loop
      vertex 2.93444 -12.25 21.3763
      vertex 7.25 -12.25 26
      vertex 3 -12.25 22
    endloop
  endfacet
  facet normal 0 -1 0
    outer loop
      vertex 2.74064 -12.25 20.7798
      vertex 7.25 -12.25 26
      vertex 2.93444 -12.25 21.3763
    endloop
  endfacet
  facet normal 0 -1 0
    outer loop
      vertex 7.25 -12.25 -3.5
      vertex 2.74064 -12.25 20.7798
      vertex 2.42705 -12.25 20.2366
    endloop
  endfacet
  facet normal 0 -1 0
    outer loop
      vertex 7.25 -12.25 -3.5
      vertex 0.313585 -12.25 19.0164
      vertex -7.25 -12.25 -3.5
    endloop
  endfacet
  facet normal 0 -1 0
    outer loop
      vertex 0.313585 -12.25 19.0164
      vertex 7.25 -12.25 -3.5
      vertex 0.927051 -12.25 19.1468
    endloop
  endfacet
  facet normal 0 -1 0
    outer loop
      vertex 0.927051 -12.25 19.1468
      vertex 7.25 -12.25 -3.5
      vertex 1.5 -12.25 19.4019
    endloop
  endfacet
  facet normal 0 -1 0
    outer loop
      vertex 1.5 -12.25 19.4019
      vertex 7.25 -12.25 -3.5
      vertex 2.00739 -12.25 19.7706
    endloop
  endfacet
  facet normal 0 -1 0
    outer loop
      vertex 2.00739 -12.25 19.7706
      vertex 7.25 -12.25 -3.5
      vertex 2.42705 -12.25 20.2366
    endloop
  endfacet
  facet normal 0 -1 0
    outer loop
      vertex 2.74064 -12.25 20.7798
      vertex 7.25 -12.25 -3.5
      vertex 7.25 -12.25 26
    endloop
  endfacet
  facet normal 0.994522 0.104529 0
    outer loop
      vertex 10 0 19
      vertex 9.78148 2.07912 -3.5
      vertex 9.78148 2.07912 19
    endloop
  endfacet
  facet normal 0.994522 0.104529 0
    outer loop
      vertex 9.78148 2.07912 -3.5
      vertex 10 0 19
      vertex 10 0 -3.5
    endloop
  endfacet
  facet normal -0.994522 0.104529 0
    outer loop
      vertex -10 0 -3.5
      vertex -9.78148 2.07912 19
      vertex -9.78148 2.07912 -3.5
    endloop
  endfacet
  facet normal -0.994522 0.104529 0
    outer loop
      vertex -9.78148 2.07912 19
      vertex -10 0 -3.5
      vertex -10 0 19
    endloop
  endfacet
  facet normal -0.743145 0.669131 0
    outer loop
      vertex -8.09017 5.87785 -3.5
      vertex -7.25 6.81096 19
      vertex -7.25 6.81096 -3.5
    endloop
  endfacet
  facet normal -0.743145 0.669131 0
    outer loop
      vertex -7.25 6.81096 19
      vertex -8.09017 5.87785 -3.5
      vertex -8.09017 5.87785 19
    endloop
  endfacet
  facet normal -0.866026 0.5 0
    outer loop
      vertex -9.13545 4.06737 -3.5
      vertex -8.09017 5.87785 19
      vertex -8.09017 5.87785 -3.5
    endloop
  endfacet
  facet normal -0.866026 0.5 0
    outer loop
      vertex -8.09017 5.87785 19
      vertex -9.13545 4.06737 -3.5
      vertex -9.13545 4.06737 19
    endloop
  endfacet
  facet normal 0.951057 -0.309017 0
    outer loop
      vertex 9.13545 -4.06737 19
      vertex 9.78148 -2.07912 -3.5
      vertex 9.78148 -2.07912 19
    endloop
  endfacet
  facet normal 0.951057 -0.309017 0
    outer loop
      vertex 9.78148 -2.07912 -3.5
      vertex 9.13545 -4.06737 19
      vertex 9.13545 -4.06737 -3.5
    endloop
  endfacet
  facet normal 0.866026 0.5 0
    outer loop
      vertex 9.13545 4.06737 19
      vertex 8.09017 5.87785 -3.5
      vertex 8.09017 5.87785 19
    endloop
  endfacet
  facet normal 0.866026 0.5 0
    outer loop
      vertex 8.09017 5.87785 -3.5
      vertex 9.13545 4.06737 19
      vertex 9.13545 4.06737 -3.5
    endloop
  endfacet
  facet normal 0.951057 0.309017 0
    outer loop
      vertex 9.78148 2.07912 19
      vertex 9.13545 4.06737 -3.5
      vertex 9.13545 4.06737 19
    endloop
  endfacet
  facet normal 0.951057 0.309017 0
    outer loop
      vertex 9.13545 4.06737 -3.5
      vertex 9.78148 2.07912 19
      vertex 9.78148 2.07912 -3.5
    endloop
  endfacet
  facet normal 0.743145 0.669131 0
    outer loop
      vertex 8.09017 5.87785 19
      vertex 7.25 6.81096 -3.5
      vertex 7.25 6.81096 19
    endloop
  endfacet
  facet normal 0.743145 0.669131 0
    outer loop
      vertex 7.25 6.81096 -3.5
      vertex 8.09017 5.87785 19
      vertex 8.09017 5.87785 -3.5
    endloop
  endfacet
  facet normal -0.951057 0.309017 0
    outer loop
      vertex -9.78148 2.07912 -3.5
      vertex -9.13545 4.06737 19
      vertex -9.13545 4.06737 -3.5
    endloop
  endfacet
  facet normal -0.951057 0.309017 0
    outer loop
      vertex -9.13545 4.06737 19
      vertex -9.78148 2.07912 -3.5
      vertex -9.78148 2.07912 19
    endloop
  endfacet
  facet normal 0.994522 -0.104529 0
    outer loop
      vertex 9.78148 -2.07912 19
      vertex 10 0 -3.5
      vertex 10 0 19
    endloop
  endfacet
  facet normal 0.994522 -0.104529 0
    outer loop
      vertex 10 0 -3.5
      vertex 9.78148 -2.07912 19
      vertex 9.78148 -2.07912 -3.5
    endloop
  endfacet
  facet normal 0 0 -1
    outer loop
      vertex -9.13545 -4.06737 -3.5
      vertex -7.25 -6.81096 -3.5
      vertex -8.09017 -5.87785 -3.5
    endloop
  endfacet
  facet normal 0 0 -1
    outer loop
      vertex -9.78148 -2.07912 -3.5
      vertex -7.25 -6.81096 -3.5
      vertex -9.13545 -4.06737 -3.5
    endloop
  endfacet
  facet normal 0 0 -1
    outer loop
      vertex -7.25 -6.81096 -3.5
      vertex -9.78148 -2.07912 -3.5
      vertex -7.25 6.81096 -3.5
    endloop
  endfacet
  facet normal 0 0 -1
    outer loop
      vertex -7.25 6.81096 -3.5
      vertex -9.13545 4.06737 -3.5
      vertex -8.09017 5.87785 -3.5
    endloop
  endfacet
  facet normal 0 0 -1
    outer loop
      vertex -9.78148 2.07912 -3.5
      vertex -7.25 6.81096 -3.5
      vertex -9.78148 -2.07912 -3.5
    endloop
  endfacet
  facet normal 0 0 -1
    outer loop
      vertex -7.25 6.81096 -3.5
      vertex -9.78148 2.07912 -3.5
      vertex -9.13545 4.06737 -3.5
    endloop
  endfacet
  facet normal 0 -0 -1
    outer loop
      vertex -9.78148 2.07912 -3.5
      vertex -9.78148 -2.07912 -3.5
      vertex -10 0 -3.5
    endloop
  endfacet
  facet normal 0 0 -1
    outer loop
      vertex -7.25 -6.81096 -3.5
      vertex 7.25 -6.81096 -3.5
      vertex 7.25 -12.25 -3.5
    endloop
  endfacet
  facet normal 0 0 -1
    outer loop
      vertex 7.25 -6.81096 -3.5
      vertex -7.25 -6.81096 -3.5
      vertex 7.25 6.81096 -3.5
    endloop
  endfacet
  facet normal 0 0 -1
    outer loop
      vertex -7.25 -6.81096 -3.5
      vertex 7.25 -12.25 -3.5
      vertex -7.25 -12.25 -3.5
    endloop
  endfacet
  facet normal 0 0 -1
    outer loop
      vertex -7.25 6.81096 -3.5
      vertex 7.25 6.81096 -3.5
      vertex -7.25 -6.81096 -3.5
    endloop
  endfacet
  facet normal 0 0 -1
    outer loop
      vertex 7.25 6.81096 -3.5
      vertex -7.25 6.81096 -3.5
      vertex 7.25 12.25 -3.5
    endloop
  endfacet
  facet normal -0 0 -1
    outer loop
      vertex 7.25 12.25 -3.5
      vertex -7.25 6.81096 -3.5
      vertex -7.25 12.25 -3.5
    endloop
  endfacet
  facet normal 0 0 -1
    outer loop
      vertex 9.78148 -2.07912 -3.5
      vertex 9.78148 2.07912 -3.5
      vertex 10 0 -3.5
    endloop
  endfacet
  facet normal 0 0 -1
    outer loop
      vertex 7.25 -6.81096 -3.5
      vertex 9.78148 -2.07912 -3.5
      vertex 9.13545 -4.06737 -3.5
    endloop
  endfacet
  facet normal -0 0 -1
    outer loop
      vertex 9.78148 -2.07912 -3.5
      vertex 7.25 -6.81096 -3.5
      vertex 9.78148 2.07912 -3.5
    endloop
  endfacet
  facet normal 0 0 -1
    outer loop
      vertex 7.25 -6.81096 -3.5
      vertex 9.13545 -4.06737 -3.5
      vertex 8.09017 -5.87785 -3.5
    endloop
  endfacet
  facet normal 0 0 -1
    outer loop
      vertex 7.25 6.81096 -3.5
      vertex 9.78148 2.07912 -3.5
      vertex 7.25 -6.81096 -3.5
    endloop
  endfacet
  facet normal 0 0 -1
    outer loop
      vertex 9.78148 2.07912 -3.5
      vertex 7.25 6.81096 -3.5
      vertex 9.13545 4.06737 -3.5
    endloop
  endfacet
  facet normal 0 0 -1
    outer loop
      vertex 9.13545 4.06737 -3.5
      vertex 7.25 6.81096 -3.5
      vertex 8.09017 5.87785 -3.5
    endloop
  endfacet
  facet normal 0.866026 -0.5 0
    outer loop
      vertex 8.09017 -5.87785 19
      vertex 9.13545 -4.06737 -3.5
      vertex 9.13545 -4.06737 19
    endloop
  endfacet
  facet normal 0.866026 -0.5 0
    outer loop
      vertex 9.13545 -4.06737 -3.5
      vertex 8.09017 -5.87785 19
      vertex 8.09017 -5.87785 -3.5
    endloop
  endfacet
  facet normal -0.866026 -0.5 0
    outer loop
      vertex -8.09017 -5.87785 -3.5
      vertex -9.13545 -4.06737 19
      vertex -9.13545 -4.06737 -3.5
    endloop
  endfacet
  facet normal -0.866026 -0.5 0
    outer loop
      vertex -9.13545 -4.06737 19
      vertex -8.09017 -5.87785 -3.5
      vertex -8.09017 -5.87785 19
    endloop
  endfacet
  facet normal -0.743145 -0.669131 0
    outer loop
      vertex -7.25 -6.81096 -3.5
      vertex -8.09017 -5.87785 19
      vertex -8.09017 -5.87785 -3.5
    endloop
  endfacet
  facet normal -0.743145 -0.669131 0
    outer loop
      vertex -8.09017 -5.87785 19
      vertex -7.25 -6.81096 -3.5
      vertex -7.25 -6.81096 19
    endloop
  endfacet
  facet normal -0.951057 -0.309017 0
    outer loop
      vertex -9.13545 -4.06737 -3.5
      vertex -9.78148 -2.07912 19
      vertex -9.78148 -2.07912 -3.5
    endloop
  endfacet
  facet normal -0.951057 -0.309017 0
    outer loop
      vertex -9.78148 -2.07912 19
      vertex -9.13545 -4.06737 -3.5
      vertex -9.13545 -4.06737 19
    endloop
  endfacet
  facet normal -0.994522 -0.104529 0
    outer loop
      vertex -9.78148 -2.07912 -3.5
      vertex -10 0 19
      vertex -10 0 -3.5
    endloop
  endfacet
  facet normal -0.994522 -0.104529 0
    outer loop
      vertex -10 0 19
      vertex -9.78148 -2.07912 -3.5
      vertex -9.78148 -2.07912 19
    endloop
  endfacet
  facet normal 0.743145 -0.669131 0
    outer loop
      vertex 7.25 -6.81096 19
      vertex 8.09017 -5.87785 -3.5
      vertex 8.09017 -5.87785 19
    endloop
  endfacet
  facet normal 0.743145 -0.669131 0
    outer loop
      vertex 8.09017 -5.87785 -3.5
      vertex 7.25 -6.81096 19
      vertex 7.25 -6.81096 -3.5
    endloop
  endfacet
  facet normal 1 0 0
    outer loop
      vertex -6.25 11.25 19
      vertex -6.25 -1.25 7
      vertex -6.25 11.25 2
    endloop
  endfacet
  facet normal 1 -0 0
    outer loop
      vertex -6.25 -11.25 19
      vertex -6.25 -1.25 7
      vertex -6.25 11.25 19
    endloop
  endfacet
  facet normal 1 0 0
    outer loop
      vertex -6.25 -1.25 7
      vertex -6.25 -11.25 19
      vertex -6.25 -11.25 7
    endloop
  endfacet
  facet normal 1 0 0
    outer loop
      vertex -6.25 11.25 2
      vertex -6.25 -1.25 7
      vertex -6.25 -1.25 2
    endloop
  endfacet
  facet normal -1 0 0
    outer loop
      vertex 6.25 -1.25 7
      vertex 6.25 11.25 2
      vertex 6.25 -1.25 2
    endloop
  endfacet
  facet normal -1 0 0
    outer loop
      vertex 6.25 11.25 2
      vertex 6.25 -1.25 7
      vertex 6.25 11.25 19
    endloop
  endfacet
  facet normal -1 0 0
    outer loop
      vertex 6.25 -11.25 19
      vertex 6.25 -1.25 7
      vertex 6.25 -11.25 7
    endloop
  endfacet
  facet normal -1 0 0
    outer loop
      vertex 6.25 -1.25 7
      vertex 6.25 -11.25 19
      vertex 6.25 11.25 19
    endloop
  endfacet
  facet normal -0 0 1
    outer loop
      vertex -6.25 11.25 2
      vertex 6.25 -1.25 2
      vertex 6.25 11.25 2
    endloop
  endfacet
  facet normal 0 0 1
    outer loop
      vertex 6.25 -1.25 2
      vertex -6.25 11.25 2
      vertex -6.25 -1.25 2
    endloop
  endfacet
  facet normal 0 1 -0
    outer loop
      vertex 6.25 -11.25 7
      vertex -6.25 -11.25 19
      vertex 6.25 -11.25 19
    endloop
  endfacet
  facet normal 0 1 0
    outer loop
      vertex -6.25 -11.25 19
      vertex 6.25 -11.25 7
      vertex -6.25 -11.25 7
    endloop
  endfacet
  facet normal 0 -1 0
    outer loop
      vertex -6.25 11.25 2
      vertex 6.25 11.25 19
      vertex -6.25 11.25 19
    endloop
  endfacet
  facet normal 0 -1 -0
    outer loop
      vertex 6.25 11.25 19
      vertex -6.25 11.25 2
      vertex 6.25 11.25 2
    endloop
  endfacet
  facet normal -0 0 1
    outer loop
      vertex -6.25 -1.25 7
      vertex 6.25 -11.25 7
      vertex 6.25 -1.25 7
    endloop
  endfacet
  facet normal 0 0 1
    outer loop
      vertex 6.25 -11.25 7
      vertex -6.25 -1.25 7
      vertex -6.25 -11.25 7
    endloop
  endfacet
  facet normal 0 1 -0
    outer loop
      vertex 6.25 -1.25 2
      vertex -6.25 -1.25 7
      vertex 6.25 -1.25 7
    endloop
  endfacet
  facet normal 0 1 0
    outer loop
      vertex -6.25 -1.25 7
      vertex 6.25 -1.25 2
      vertex -6.25 -1.25 2
    endloop
  endfacet
  facet normal -0 0 1
    outer loop
      vertex -7.25 -11.25 26
      vertex 7.25 -12.25 26
      vertex 7.25 -11.25 26
    endloop
  endfacet
  facet normal 0 0 1
    outer loop
      vertex 7.25 -12.25 26
      vertex -7.25 -11.25 26
      vertex -7.25 -12.25 26
    endloop
  endfacet
  facet normal 0 1 0
    outer loop
      vertex 6.25 -11.25 19
      vertex 7.25 -11.25 26
      vertex 7.25 -11.25 19
    endloop
  endfacet
  facet normal 0 1 0
    outer loop
      vertex 7.25 -11.25 26
      vertex 6.25 -11.25 19
      vertex -7.25 -11.25 26
    endloop
  endfacet
  facet normal 0 1 -0
    outer loop
      vertex -6.25 -11.25 19
      vertex -7.25 -11.25 26
      vertex 6.25 -11.25 19
    endloop
  endfacet
  facet normal 0 1 0
    outer loop
      vertex -7.25 -11.25 26
      vertex -6.25 -11.25 19
      vertex -7.25 -11.25 19
    endloop
  endfacet
  facet normal 0.994522 -0 0.104529
    outer loop
      vertex 2.93444 -16 22.6237
      vertex 3 -12.25 22
      vertex 2.93444 -12.25 22.6237
    endloop
  endfacet
  facet normal 0.994522 0 0.104529
    outer loop
      vertex 3 -12.25 22
      vertex 2.93444 -16 22.6237
      vertex 3 -16 22
    endloop
  endfacet
  facet normal 0.951057 -0 0.309017
    outer loop
      vertex 2.74064 -16 23.2202
      vertex 2.93444 -12.25 22.6237
      vertex 2.74064 -12.25 23.2202
    endloop
  endfacet
  facet normal 0.951057 0 0.309017
    outer loop
      vertex 2.93444 -12.25 22.6237
      vertex 2.74064 -16 23.2202
      vertex 2.93444 -16 22.6237
    endloop
  endfacet
  facet normal -0.207914 0 0.978147
    outer loop
      vertex -0.927051 -12.25 24.8532
      vertex -0.313585 -16 24.9836
      vertex -0.313585 -12.25 24.9836
    endloop
  endfacet
  facet normal -0.207914 0 0.978147
    outer loop
      vertex -0.313585 -16 24.9836
      vertex -0.927051 -12.25 24.8532
      vertex -0.927051 -16 24.8532
    endloop
  endfacet
  facet normal 0.406738 0 -0.913545
    outer loop
      vertex 0.927051 -16 19.1468
      vertex 1.5 -12.25 19.4019
      vertex 1.5 -16 19.4019
    endloop
  endfacet
  facet normal 0.406738 0 -0.913545
    outer loop
      vertex 1.5 -12.25 19.4019
      vertex 0.927051 -16 19.1468
      vertex 0.927051 -12.25 19.1468
    endloop
  endfacet
  facet normal 0.587785 0 0.809017
    outer loop
      vertex 1.5 -12.25 24.5981
      vertex 2.00739 -16 24.2294
      vertex 2.00739 -12.25 24.2294
    endloop
  endfacet
  facet normal 0.587785 0 0.809017
    outer loop
      vertex 2.00739 -16 24.2294
      vertex 1.5 -12.25 24.5981
      vertex 1.5 -16 24.5981
    endloop
  endfacet
  facet normal -0.743145 0 0.66913
    outer loop
      vertex -2.42705 -16 23.7634
      vertex -2.00739 -12.25 24.2294
      vertex -2.42705 -12.25 23.7634
    endloop
  endfacet
  facet normal -0.743145 0 0.66913
    outer loop
      vertex -2.00739 -12.25 24.2294
      vertex -2.42705 -16 23.7634
      vertex -2.00739 -16 24.2294
    endloop
  endfacet
  facet normal -0.587784 0 0.809018
    outer loop
      vertex -2.00739 -12.25 24.2294
      vertex -1.5 -16 24.5981
      vertex -1.5 -12.25 24.5981
    endloop
  endfacet
  facet normal -0.587784 0 0.809018
    outer loop
      vertex -1.5 -16 24.5981
      vertex -2.00739 -12.25 24.2294
      vertex -2.00739 -16 24.2294
    endloop
  endfacet
  facet normal 0.866026 -0 0.5
    outer loop
      vertex 2.42705 -16 23.7634
      vertex 2.74064 -12.25 23.2202
      vertex 2.42705 -12.25 23.7634
    endloop
  endfacet
  facet normal 0.866026 0 0.5
    outer loop
      vertex 2.74064 -12.25 23.2202
      vertex 2.42705 -16 23.7634
      vertex 2.74064 -16 23.2202
    endloop
  endfacet
  facet normal 0.207914 0 0.978147
    outer loop
      vertex 0.313585 -12.25 24.9836
      vertex 0.927051 -16 24.8532
      vertex 0.927051 -12.25 24.8532
    endloop
  endfacet
  facet normal 0.207914 0 0.978147
    outer loop
      vertex 0.927051 -16 24.8532
      vertex 0.313585 -12.25 24.9836
      vertex 0.313585 -16 24.9836
    endloop
  endfacet
  facet normal 0.406735 0 0.913546
    outer loop
      vertex 0.927051 -12.25 24.8532
      vertex 1.5 -16 24.5981
      vertex 1.5 -12.25 24.5981
    endloop
  endfacet
  facet normal 0.406735 0 0.913546
    outer loop
      vertex 1.5 -16 24.5981
      vertex 0.927051 -12.25 24.8532
      vertex 0.927051 -16 24.8532
    endloop
  endfacet
  facet normal -0.951057 0 0.309017
    outer loop
      vertex -2.93444 -16 22.6237
      vertex -2.74064 -12.25 23.2202
      vertex -2.93444 -12.25 22.6237
    endloop
  endfacet
  facet normal -0.951057 0 0.309017
    outer loop
      vertex -2.74064 -12.25 23.2202
      vertex -2.93444 -16 22.6237
      vertex -2.74064 -16 23.2202
    endloop
  endfacet
  facet normal -0.866026 0 0.5
    outer loop
      vertex -2.74064 -16 23.2202
      vertex -2.42705 -12.25 23.7634
      vertex -2.74064 -12.25 23.2202
    endloop
  endfacet
  facet normal -0.866026 0 0.5
    outer loop
      vertex -2.42705 -12.25 23.7634
      vertex -2.74064 -16 23.2202
      vertex -2.42705 -16 23.7634
    endloop
  endfacet
  facet normal 0 -1 0
    outer loop
      vertex -0.927051 -16 24.8532
      vertex 0.313585 -16 24.9836
      vertex -0.313585 -16 24.9836
    endloop
  endfacet
  facet normal 0 -1 0
    outer loop
      vertex -0.927051 -16 24.8532
      vertex 0.927051 -16 24.8532
      vertex 0.313585 -16 24.9836
    endloop
  endfacet
  facet normal 0 -1 0
    outer loop
      vertex -1.5 -16 24.5981
      vertex 0.927051 -16 24.8532
      vertex -0.927051 -16 24.8532
    endloop
  endfacet
  facet normal 0 -1 0
    outer loop
      vertex -1.5 -16 24.5981
      vertex 1.5 -16 24.5981
      vertex 0.927051 -16 24.8532
    endloop
  endfacet
  facet normal 0 -1 0
    outer loop
      vertex -2.00739 -16 24.2294
      vertex 1.5 -16 24.5981
      vertex -1.5 -16 24.5981
    endloop
  endfacet
  facet normal 0 -1 0
    outer loop
      vertex -2.00739 -16 24.2294
      vertex 2.00739 -16 24.2294
      vertex 1.5 -16 24.5981
    endloop
  endfacet
  facet normal 0 -1 0
    outer loop
      vertex -2.42705 -16 23.7634
      vertex 2.00739 -16 24.2294
      vertex -2.00739 -16 24.2294
    endloop
  endfacet
  facet normal 0 -1 0
    outer loop
      vertex -2.42705 -16 23.7634
      vertex 2.42705 -16 23.7634
      vertex 2.00739 -16 24.2294
    endloop
  endfacet
  facet normal 0 -1 0
    outer loop
      vertex -2.74064 -16 23.2202
      vertex 2.42705 -16 23.7634
      vertex -2.42705 -16 23.7634
    endloop
  endfacet
  facet normal 0 -1 0
    outer loop
      vertex -2.74064 -16 23.2202
      vertex 2.74064 -16 23.2202
      vertex 2.42705 -16 23.7634
    endloop
  endfacet
  facet normal 0 -1 0
    outer loop
      vertex -2.93444 -16 22.6237
      vertex 2.74064 -16 23.2202
      vertex -2.74064 -16 23.2202
    endloop
  endfacet
  facet normal 0 -1 0
    outer loop
      vertex -2.93444 -16 22.6237
      vertex 2.93444 -16 22.6237
      vertex 2.74064 -16 23.2202
    endloop
  endfacet
  facet normal 0 -1 0
    outer loop
      vertex -3 -16 22
      vertex 2.93444 -16 22.6237
      vertex -2.93444 -16 22.6237
    endloop
  endfacet
  facet normal 0 -1 0
    outer loop
      vertex -3 -16 22
      vertex 3 -16 22
      vertex 2.93444 -16 22.6237
    endloop
  endfacet
  facet normal 0 -1 0
    outer loop
      vertex -2.93444 -16 21.3763
      vertex 3 -16 22
      vertex -3 -16 22
    endloop
  endfacet
  facet normal 0 -1 0
    outer loop
      vertex -2.93444 -16 21.3763
      vertex 2.93444 -16 21.3763
      vertex 3 -16 22
    endloop
  endfacet
  facet normal 0 -1 0
    outer loop
      vertex -2.74064 -16 20.7798
      vertex 2.93444 -16 21.3763
      vertex -2.93444 -16 21.3763
    endloop
  endfacet
  facet normal 0 -1 0
    outer loop
      vertex -2.74064 -16 20.7798
      vertex 2.74064 -16 20.7798
      vertex 2.93444 -16 21.3763
    endloop
  endfacet
  facet normal 0 -1 0
    outer loop
      vertex -2.42705 -16 20.2366
      vertex 2.74064 -16 20.7798
      vertex -2.74064 -16 20.7798
    endloop
  endfacet
  facet normal 0 -1 0
    outer loop
      vertex -2.42705 -16 20.2366
      vertex 2.42705 -16 20.2366
      vertex 2.74064 -16 20.7798
    endloop
  endfacet
  facet normal 0 -1 0
    outer loop
      vertex -2.00739 -16 19.7706
      vertex 2.42705 -16 20.2366
      vertex -2.42705 -16 20.2366
    endloop
  endfacet
  facet normal 0 -1 0
    outer loop
      vertex -2.00739 -16 19.7706
      vertex 2.00739 -16 19.7706
      vertex 2.42705 -16 20.2366
    endloop
  endfacet
  facet normal 0 -1 0
    outer loop
      vertex -1.5 -16 19.4019
      vertex 2.00739 -16 19.7706
      vertex -2.00739 -16 19.7706
    endloop
  endfacet
  facet normal 0 -1 0
    outer loop
      vertex -1.5 -16 19.4019
      vertex 1.5 -16 19.4019
      vertex 2.00739 -16 19.7706
    endloop
  endfacet
  facet normal 0 -1 0
    outer loop
      vertex -0.927051 -16 19.1468
      vertex 1.5 -16 19.4019
      vertex -1.5 -16 19.4019
    endloop
  endfacet
  facet normal 0 -1 0
    outer loop
      vertex -0.927051 -16 19.1468
      vertex 0.927051 -16 19.1468
      vertex 1.5 -16 19.4019
    endloop
  endfacet
  facet normal 0 -1 0
    outer loop
      vertex -0.313585 -16 19.0164
      vertex 0.927051 -16 19.1468
      vertex -0.927051 -16 19.1468
    endloop
  endfacet
  facet normal 0 -1 0
    outer loop
      vertex 0.927051 -16 19.1468
      vertex -0.313585 -16 19.0164
      vertex 0.313585 -16 19.0164
    endloop
  endfacet
  facet normal -0.406736 0 0.913546
    outer loop
      vertex -1.5 -12.25 24.5981
      vertex -0.927051 -16 24.8532
      vertex -0.927051 -12.25 24.8532
    endloop
  endfacet
  facet normal -0.406736 0 0.913546
    outer loop
      vertex -0.927051 -16 24.8532
      vertex -1.5 -12.25 24.5981
      vertex -1.5 -16 24.5981
    endloop
  endfacet
  facet normal 0.994522 0 -0.104529
    outer loop
      vertex 3 -16 22
      vertex 2.93444 -12.25 21.3763
      vertex 3 -12.25 22
    endloop
  endfacet
  facet normal 0.994522 0 -0.104529
    outer loop
      vertex 2.93444 -12.25 21.3763
      vertex 3 -16 22
      vertex 2.93444 -16 21.3763
    endloop
  endfacet
  facet normal 0.207911 0 -0.978148
    outer loop
      vertex 0.313585 -16 19.0164
      vertex 0.927051 -12.25 19.1468
      vertex 0.927051 -16 19.1468
    endloop
  endfacet
  facet normal 0.207911 0 -0.978148
    outer loop
      vertex 0.927051 -12.25 19.1468
      vertex 0.313585 -16 19.0164
      vertex 0.313585 -12.25 19.0164
    endloop
  endfacet
  facet normal 0.743145 -0 0.66913
    outer loop
      vertex 2.00739 -16 24.2294
      vertex 2.42705 -12.25 23.7634
      vertex 2.00739 -12.25 24.2294
    endloop
  endfacet
  facet normal 0.743145 0 0.66913
    outer loop
      vertex 2.42705 -12.25 23.7634
      vertex 2.00739 -16 24.2294
      vertex 2.42705 -16 23.7634
    endloop
  endfacet
  facet normal -0 0 1
    outer loop
      vertex -0.313585 -12.25 24.9836
      vertex 0.313585 -16 24.9836
      vertex 0.313585 -12.25 24.9836
    endloop
  endfacet
  facet normal 0 0 1
    outer loop
      vertex 0.313585 -16 24.9836
      vertex -0.313585 -12.25 24.9836
      vertex -0.313585 -16 24.9836
    endloop
  endfacet
  facet normal -0.994522 0 0.104529
    outer loop
      vertex -3 -16 22
      vertex -2.93444 -12.25 22.6237
      vertex -3 -12.25 22
    endloop
  endfacet
  facet normal -0.994522 0 0.104529
    outer loop
      vertex -2.93444 -12.25 22.6237
      vertex -3 -16 22
      vertex -2.93444 -16 22.6237
    endloop
  endfacet
  facet normal -0.994522 0 -0.104529
    outer loop
      vertex -2.93444 -16 21.3763
      vertex -3 -12.25 22
      vertex -2.93444 -12.25 21.3763
    endloop
  endfacet
  facet normal -0.994522 -0 -0.104529
    outer loop
      vertex -3 -12.25 22
      vertex -2.93444 -16 21.3763
      vertex -3 -16 22
    endloop
  endfacet
  facet normal 0.587785 0 -0.809017
    outer loop
      vertex 1.5 -16 19.4019
      vertex 2.00739 -12.25 19.7706
      vertex 2.00739 -16 19.7706
    endloop
  endfacet
  facet normal 0.587785 0 -0.809017
    outer loop
      vertex 2.00739 -12.25 19.7706
      vertex 1.5 -16 19.4019
      vertex 1.5 -12.25 19.4019
    endloop
  endfacet
  facet normal -0.406738 0 -0.913545
    outer loop
      vertex -1.5 -16 19.4019
      vertex -0.927051 -12.25 19.1468
      vertex -0.927051 -16 19.1468
    endloop
  endfacet
  facet normal -0.406738 0 -0.913545
    outer loop
      vertex -0.927051 -12.25 19.1468
      vertex -1.5 -16 19.4019
      vertex -1.5 -12.25 19.4019
    endloop
  endfacet
  facet normal -0.743145 0 -0.66913
    outer loop
      vertex -2.00739 -16 19.7706
      vertex -2.42705 -12.25 20.2366
      vertex -2.00739 -12.25 19.7706
    endloop
  endfacet
  facet normal -0.743145 -0 -0.66913
    outer loop
      vertex -2.42705 -12.25 20.2366
      vertex -2.00739 -16 19.7706
      vertex -2.42705 -16 20.2366
    endloop
  endfacet
  facet normal -0.866025 0 -0.500001
    outer loop
      vertex -2.42705 -16 20.2366
      vertex -2.74064 -12.25 20.7798
      vertex -2.42705 -12.25 20.2366
    endloop
  endfacet
  facet normal -0.866025 -0 -0.500001
    outer loop
      vertex -2.74064 -12.25 20.7798
      vertex -2.42705 -16 20.2366
      vertex -2.74064 -16 20.7798
    endloop
  endfacet
  facet normal -0.587785 0 -0.809017
    outer loop
      vertex -2.00739 -16 19.7706
      vertex -1.5 -12.25 19.4019
      vertex -1.5 -16 19.4019
    endloop
  endfacet
  facet normal -0.587785 0 -0.809017
    outer loop
      vertex -1.5 -12.25 19.4019
      vertex -2.00739 -16 19.7706
      vertex -2.00739 -12.25 19.7706
    endloop
  endfacet
  facet normal -0.951057 0 -0.309017
    outer loop
      vertex -2.74064 -16 20.7798
      vertex -2.93444 -12.25 21.3763
      vertex -2.74064 -12.25 20.7798
    endloop
  endfacet
  facet normal -0.951057 -0 -0.309017
    outer loop
      vertex -2.93444 -12.25 21.3763
      vertex -2.74064 -16 20.7798
      vertex -2.93444 -16 21.3763
    endloop
  endfacet
  facet normal 0.866025 0 -0.500001
    outer loop
      vertex 2.74064 -16 20.7798
      vertex 2.42705 -12.25 20.2366
      vertex 2.74064 -12.25 20.7798
    endloop
  endfacet
  facet normal 0.866025 0 -0.500001
    outer loop
      vertex 2.42705 -12.25 20.2366
      vertex 2.74064 -16 20.7798
      vertex 2.42705 -16 20.2366
    endloop
  endfacet
  facet normal 0.951057 0 -0.309017
    outer loop
      vertex 2.93444 -16 21.3763
      vertex 2.74064 -12.25 20.7798
      vertex 2.93444 -12.25 21.3763
    endloop
  endfacet
  facet normal 0.951057 0 -0.309017
    outer loop
      vertex 2.74064 -12.25 20.7798
      vertex 2.93444 -16 21.3763
      vertex 2.74064 -16 20.7798
    endloop
  endfacet
  facet normal 0.743145 0 -0.66913
    outer loop
      vertex 2.42705 -16 20.2366
      vertex 2.00739 -12.25 19.7706
      vertex 2.42705 -12.25 20.2366
    endloop
  endfacet
  facet normal 0.743145 0 -0.66913
    outer loop
      vertex 2.00739 -12.25 19.7706
      vertex 2.42705 -16 20.2366
      vertex 2.00739 -16 19.7706
    endloop
  endfacet
  facet normal -0.207911 0 -0.978148
    outer loop
      vertex -0.927051 -16 19.1468
      vertex -0.313585 -12.25 19.0164
      vertex -0.313585 -16 19.0164
    endloop
  endfacet
  facet normal -0.207911 0 -0.978148
    outer loop
      vertex -0.313585 -12.25 19.0164
      vertex -0.927051 -16 19.1468
      vertex -0.927051 -12.25 19.1468
    endloop
  endfacet
  facet normal 0 0 -1
    outer loop
      vertex -0.313585 -16 19.0164
      vertex 0.313585 -12.25 19.0164
      vertex 0.313585 -16 19.0164
    endloop
  endfacet
  facet normal -0 0 -1
    outer loop
      vertex 0.313585 -12.25 19.0164
      vertex -0.313585 -16 19.0164
      vertex -0.313585 -12.25 19.0164
    endloop
  endfacet
endsolid OpenSCAD_Model
