solid OpenSCAD_Model
  facet normal 0.994522 0.104529 0
    outer loop
      vertex 11.5 0 13
      vertex 11.2487 2.39098 0
      vertex 11.2487 2.39098 13
    endloop
  endfacet
  facet normal 0.994522 0.104529 0
    outer loop
      vertex 11.2487 2.39098 0
      vertex 11.5 0 13
      vertex 11.5 0 0
    endloop
  endfacet
  facet normal -0.994522 0.104529 0
    outer loop
      vertex -11.5 0 0
      vertex -11.2487 2.39098 13
      vertex -11.2487 2.39098 0
    endloop
  endfacet
  facet normal -0.994522 0.104529 0
    outer loop
      vertex -11.2487 2.39098 13
      vertex -11.5 0 0
      vertex -11.5 0 13
    endloop
  endfacet
  facet normal 0 1 -0
    outer loop
      vertex 1.20208 11.437 0
      vertex -1.20208 11.437 13
      vertex 1.20208 11.437 13
    endloop
  endfacet
  facet normal 0 1 0
    outer loop
      vertex -1.20208 11.437 13
      vertex 1.20208 11.437 0
      vertex -1.20208 11.437 0
    endloop
  endfacet
  facet normal 0.743145 0.66913 0
    outer loop
      vertex 9.30369 6.75953 13
      vertex 7.695 8.54617 0
      vertex 7.695 8.54617 13
    endloop
  endfacet
  facet normal 0.743145 0.66913 0
    outer loop
      vertex 7.695 8.54617 0
      vertex 9.30369 6.75953 13
      vertex 9.30369 6.75953 0
    endloop
  endfacet
  facet normal 0.951057 0.309017 0
    outer loop
      vertex 11.2487 2.39098 13
      vertex 10.5058 4.67747 0
      vertex 10.5058 4.67747 13
    endloop
  endfacet
  facet normal 0.951057 0.309017 0
    outer loop
      vertex 10.5058 4.67747 0
      vertex 11.2487 2.39098 13
      vertex 11.2487 2.39098 0
    endloop
  endfacet
  facet normal -0.587785 0.809017 0
    outer loop
      vertex -5.75 9.95929 0
      vertex -7.695 8.54617 13
      vertex -5.75 9.95929 13
    endloop
  endfacet
  facet normal -0.587785 0.809017 0
    outer loop
      vertex -7.695 8.54617 13
      vertex -5.75 9.95929 0
      vertex -7.695 8.54617 0
    endloop
  endfacet
  facet normal -0.207912 0.978148 0
    outer loop
      vertex -1.20208 11.437 0
      vertex -3.55369 10.9371 13
      vertex -1.20208 11.437 13
    endloop
  endfacet
  facet normal -0.207912 0.978148 0
    outer loop
      vertex -3.55369 10.9371 13
      vertex -1.20208 11.437 0
      vertex -3.55369 10.9371 0
    endloop
  endfacet
  facet normal 0 0 -1
    outer loop
      vertex 10 0 0
      vertex 11.5 0 0
      vertex 11.2487 -2.39098 0
    endloop
  endfacet
  facet normal 0 0 -1
    outer loop
      vertex 9.78148 -2.07912 0
      vertex 11.2487 -2.39098 0
      vertex 10.5058 -4.67747 0
    endloop
  endfacet
  facet normal 0 0 -1
    outer loop
      vertex 11.5 0 0
      vertex 10 0 0
      vertex 11.2487 2.39098 0
    endloop
  endfacet
  facet normal 0 0 -1
    outer loop
      vertex 9.78148 2.07912 0
      vertex 11.2487 2.39098 0
      vertex 10 0 0
    endloop
  endfacet
  facet normal 0 0 -1
    outer loop
      vertex 11.2487 -2.39098 0
      vertex 9.78148 -2.07912 0
      vertex 10 0 0
    endloop
  endfacet
  facet normal 0 0 -1
    outer loop
      vertex 9.13545 -4.06737 0
      vertex 10.5058 -4.67747 0
      vertex 9.30369 -6.75953 0
    endloop
  endfacet
  facet normal 0 0 -1
    outer loop
      vertex 10.5058 -4.67747 0
      vertex 9.13545 -4.06737 0
      vertex 9.78148 -2.07912 0
    endloop
  endfacet
  facet normal 0 0 -1
    outer loop
      vertex 9.30369 -6.75953 0
      vertex 8.09017 -5.87785 0
      vertex 9.13545 -4.06737 0
    endloop
  endfacet
  facet normal 0 0 -1
    outer loop
      vertex 7.695 -8.54617 0
      vertex 8.09017 -5.87785 0
      vertex 9.30369 -6.75953 0
    endloop
  endfacet
  facet normal 0 0 -1
    outer loop
      vertex 7.695 -8.54617 0
      vertex 6.69131 -7.43145 0
      vertex 8.09017 -5.87785 0
    endloop
  endfacet
  facet normal 0 0 -1
    outer loop
      vertex 5.75 -9.95929 0
      vertex 6.69131 -7.43145 0
      vertex 7.695 -8.54617 0
    endloop
  endfacet
  facet normal 0 0 -1
    outer loop
      vertex 5.75 -9.95929 0
      vertex 5 -8.66025 0
      vertex 6.69131 -7.43145 0
    endloop
  endfacet
  facet normal 0 0 -1
    outer loop
      vertex 3.55369 -10.9371 0
      vertex 5 -8.66025 0
      vertex 5.75 -9.95929 0
    endloop
  endfacet
  facet normal 0 0 -1
    outer loop
      vertex 3.55369 -10.9371 0
      vertex 3.09017 -9.51056 0
      vertex 5 -8.66025 0
    endloop
  endfacet
  facet normal 0 0 -1
    outer loop
      vertex 1.20208 -11.437 0
      vertex 3.09017 -9.51056 0
      vertex 3.55369 -10.9371 0
    endloop
  endfacet
  facet normal 0 0 -1
    outer loop
      vertex 1.20208 -11.437 0
      vertex 1.04528 -9.94522 0
      vertex 3.09017 -9.51056 0
    endloop
  endfacet
  facet normal 0 0 -1
    outer loop
      vertex 1.20208 -11.437 0
      vertex -1.04528 -9.94522 0
      vertex 1.04528 -9.94522 0
    endloop
  endfacet
  facet normal 0 0 -1
    outer loop
      vertex -1.20208 -11.437 0
      vertex -1.04528 -9.94522 0
      vertex 1.20208 -11.437 0
    endloop
  endfacet
  facet normal 0 0 -1
    outer loop
      vertex -1.20208 -11.437 0
      vertex -3.09017 -9.51056 0
      vertex -1.04528 -9.94522 0
    endloop
  endfacet
  facet normal 0 0 -1
    outer loop
      vertex -3.55369 -10.9371 0
      vertex -3.09017 -9.51056 0
      vertex -1.20208 -11.437 0
    endloop
  endfacet
  facet normal 0 0 -1
    outer loop
      vertex -3.55369 -10.9371 0
      vertex -5 -8.66025 0
      vertex -3.09017 -9.51056 0
    endloop
  endfacet
  facet normal 0 0 -1
    outer loop
      vertex -5.75 -9.95929 0
      vertex -5 -8.66025 0
      vertex -3.55369 -10.9371 0
    endloop
  endfacet
  facet normal 0 0 -1
    outer loop
      vertex -5.75 -9.95929 0
      vertex -6.69131 -7.43145 0
      vertex -5 -8.66025 0
    endloop
  endfacet
  facet normal 0 0 -1
    outer loop
      vertex -7.695 -8.54617 0
      vertex -6.69131 -7.43145 0
      vertex -5.75 -9.95929 0
    endloop
  endfacet
  facet normal 0 0 -1
    outer loop
      vertex -7.695 -8.54617 0
      vertex -8.09017 -5.87785 0
      vertex -6.69131 -7.43145 0
    endloop
  endfacet
  facet normal 0 0 -1
    outer loop
      vertex -9.30369 -6.75953 0
      vertex -8.09017 -5.87785 0
      vertex -7.695 -8.54617 0
    endloop
  endfacet
  facet normal -0 0 -1
    outer loop
      vertex -8.09017 -5.87785 0
      vertex -9.30369 -6.75953 0
      vertex -9.13545 -4.06737 0
    endloop
  endfacet
  facet normal 0 0 -1
    outer loop
      vertex -10.5058 -4.67747 0
      vertex -9.13545 -4.06737 0
      vertex -9.30369 -6.75953 0
    endloop
  endfacet
  facet normal -0 0 -1
    outer loop
      vertex -9.13545 -4.06737 0
      vertex -10.5058 -4.67747 0
      vertex -9.78148 -2.07912 0
    endloop
  endfacet
  facet normal 0 0 -1
    outer loop
      vertex -11.2487 -2.39098 0
      vertex -9.78148 -2.07912 0
      vertex -10.5058 -4.67747 0
    endloop
  endfacet
  facet normal -0 0 -1
    outer loop
      vertex 11.2487 2.39098 0
      vertex 9.78148 2.07912 0
      vertex 10.5058 4.67747 0
    endloop
  endfacet
  facet normal 0 0 -1
    outer loop
      vertex 9.13545 4.06737 0
      vertex 10.5058 4.67747 0
      vertex 9.78148 2.07912 0
    endloop
  endfacet
  facet normal -0 0 -1
    outer loop
      vertex 10.5058 4.67747 0
      vertex 9.13545 4.06737 0
      vertex 9.30369 6.75953 0
    endloop
  endfacet
  facet normal 0 0 -1
    outer loop
      vertex 8.09017 5.87785 0
      vertex 9.30369 6.75953 0
      vertex 9.13545 4.06737 0
    endloop
  endfacet
  facet normal 0 0 -1
    outer loop
      vertex 8.09017 5.87785 0
      vertex 7.695 8.54617 0
      vertex 9.30369 6.75953 0
    endloop
  endfacet
  facet normal 0 0 -1
    outer loop
      vertex 6.69131 7.43145 0
      vertex 7.695 8.54617 0
      vertex 8.09017 5.87785 0
    endloop
  endfacet
  facet normal 0 0 -1
    outer loop
      vertex 6.69131 7.43145 0
      vertex 5.75 9.95929 0
      vertex 7.695 8.54617 0
    endloop
  endfacet
  facet normal 0 0 -1
    outer loop
      vertex 5 8.66025 0
      vertex 5.75 9.95929 0
      vertex 6.69131 7.43145 0
    endloop
  endfacet
  facet normal 0 0 -1
    outer loop
      vertex 5 8.66025 0
      vertex 3.55369 10.9371 0
      vertex 5.75 9.95929 0
    endloop
  endfacet
  facet normal 0 0 -1
    outer loop
      vertex 3.09017 9.51056 0
      vertex 3.55369 10.9371 0
      vertex 5 8.66025 0
    endloop
  endfacet
  facet normal 0 0 -1
    outer loop
      vertex 3.09017 9.51056 0
      vertex 1.20208 11.437 0
      vertex 3.55369 10.9371 0
    endloop
  endfacet
  facet normal 0 0 -1
    outer loop
      vertex 1.04528 9.94522 0
      vertex 1.20208 11.437 0
      vertex 3.09017 9.51056 0
    endloop
  endfacet
  facet normal 0 0 -1
    outer loop
      vertex -1.04528 9.94522 0
      vertex 1.20208 11.437 0
      vertex 1.04528 9.94522 0
    endloop
  endfacet
  facet normal 0 0 -1
    outer loop
      vertex -1.04528 9.94522 0
      vertex -1.20208 11.437 0
      vertex 1.20208 11.437 0
    endloop
  endfacet
  facet normal 0 0 -1
    outer loop
      vertex -3.09017 9.51056 0
      vertex -1.20208 11.437 0
      vertex -1.04528 9.94522 0
    endloop
  endfacet
  facet normal 0 0 -1
    outer loop
      vertex -3.09017 9.51056 0
      vertex -3.55369 10.9371 0
      vertex -1.20208 11.437 0
    endloop
  endfacet
  facet normal 0 0 -1
    outer loop
      vertex -5 8.66025 0
      vertex -3.55369 10.9371 0
      vertex -3.09017 9.51056 0
    endloop
  endfacet
  facet normal 0 0 -1
    outer loop
      vertex -5 8.66025 0
      vertex -5.75 9.95929 0
      vertex -3.55369 10.9371 0
    endloop
  endfacet
  facet normal 0 0 -1
    outer loop
      vertex -6.69131 7.43145 0
      vertex -5.75 9.95929 0
      vertex -5 8.66025 0
    endloop
  endfacet
  facet normal 0 0 -1
    outer loop
      vertex -6.69131 7.43145 0
      vertex -7.695 8.54617 0
      vertex -5.75 9.95929 0
    endloop
  endfacet
  facet normal 0 0 -1
    outer loop
      vertex -8.09017 5.87785 0
      vertex -7.695 8.54617 0
      vertex -6.69131 7.43145 0
    endloop
  endfacet
  facet normal 0 0 -1
    outer loop
      vertex -9.30369 6.75953 0
      vertex -8.09017 5.87785 0
      vertex -9.13545 4.06737 0
    endloop
  endfacet
  facet normal 0 0 -1
    outer loop
      vertex -8.09017 5.87785 0
      vertex -9.30369 6.75953 0
      vertex -7.695 8.54617 0
    endloop
  endfacet
  facet normal 0 0 -1
    outer loop
      vertex -10.5058 4.67747 0
      vertex -9.13545 4.06737 0
      vertex -9.78148 2.07912 0
    endloop
  endfacet
  facet normal 0 0 -1
    outer loop
      vertex -11.2487 2.39098 0
      vertex -9.78148 2.07912 0
      vertex -10 0 0
    endloop
  endfacet
  facet normal -0 0 -1
    outer loop
      vertex -9.78148 -2.07912 0
      vertex -11.2487 -2.39098 0
      vertex -10 0 0
    endloop
  endfacet
  facet normal 0 0 -1
    outer loop
      vertex -9.13545 4.06737 0
      vertex -10.5058 4.67747 0
      vertex -9.30369 6.75953 0
    endloop
  endfacet
  facet normal 0 0 -1
    outer loop
      vertex -11.5 0 0
      vertex -10 0 0
      vertex -11.2487 -2.39098 0
    endloop
  endfacet
  facet normal 0 0 -1
    outer loop
      vertex -9.78148 2.07912 0
      vertex -11.2487 2.39098 0
      vertex -10.5058 4.67747 0
    endloop
  endfacet
  facet normal 0 0 -1
    outer loop
      vertex -10 0 0
      vertex -11.5 0 0
      vertex -11.2487 2.39098 0
    endloop
  endfacet
  facet normal 0.866025 -0.5 0
    outer loop
      vertex 9.30369 -6.75953 13
      vertex 10.5058 -4.67747 0
      vertex 10.5058 -4.67747 13
    endloop
  endfacet
  facet normal 0.866025 -0.5 0
    outer loop
      vertex 10.5058 -4.67747 0
      vertex 9.30369 -6.75953 13
      vertex 9.30369 -6.75953 0
    endloop
  endfacet
  facet normal 0.866025 0.5 0
    outer loop
      vertex 10.5058 4.67747 13
      vertex 9.30369 6.75953 0
      vertex 9.30369 6.75953 13
    endloop
  endfacet
  facet normal 0.866025 0.5 0
    outer loop
      vertex 9.30369 6.75953 0
      vertex 10.5058 4.67747 13
      vertex 10.5058 4.67747 0
    endloop
  endfacet
  facet normal 0.406736 0.913546 -0
    outer loop
      vertex 5.75 9.95929 0
      vertex 3.55369 10.9371 13
      vertex 5.75 9.95929 13
    endloop
  endfacet
  facet normal 0.406736 0.913546 0
    outer loop
      vertex 3.55369 10.9371 13
      vertex 5.75 9.95929 0
      vertex 3.55369 10.9371 0
    endloop
  endfacet
  facet normal 0.207912 0.978148 -0
    outer loop
      vertex 3.55369 10.9371 0
      vertex 1.20208 11.437 13
      vertex 3.55369 10.9371 13
    endloop
  endfacet
  facet normal 0.207912 0.978148 0
    outer loop
      vertex 1.20208 11.437 13
      vertex 3.55369 10.9371 0
      vertex 1.20208 11.437 0
    endloop
  endfacet
  facet normal 0.587785 0.809017 -0
    outer loop
      vertex 7.695 8.54617 0
      vertex 5.75 9.95929 13
      vertex 7.695 8.54617 13
    endloop
  endfacet
  facet normal 0.587785 0.809017 0
    outer loop
      vertex 5.75 9.95929 13
      vertex 7.695 8.54617 0
      vertex 5.75 9.95929 0
    endloop
  endfacet
  facet normal -0.866025 0.5 0
    outer loop
      vertex -10.5058 4.67747 0
      vertex -9.30369 6.75953 13
      vertex -9.30369 6.75953 0
    endloop
  endfacet
  facet normal -0.866025 0.5 0
    outer loop
      vertex -9.30369 6.75953 13
      vertex -10.5058 4.67747 0
      vertex -10.5058 4.67747 13
    endloop
  endfacet
  facet normal -0.743145 0.66913 0
    outer loop
      vertex -9.30369 6.75953 0
      vertex -7.695 8.54617 13
      vertex -7.695 8.54617 0
    endloop
  endfacet
  facet normal -0.743145 0.66913 0
    outer loop
      vertex -7.695 8.54617 13
      vertex -9.30369 6.75953 0
      vertex -9.30369 6.75953 13
    endloop
  endfacet
  facet normal -0.951057 0.309017 0
    outer loop
      vertex -11.2487 2.39098 0
      vertex -10.5058 4.67747 13
      vertex -10.5058 4.67747 0
    endloop
  endfacet
  facet normal -0.951057 0.309017 0
    outer loop
      vertex -10.5058 4.67747 13
      vertex -11.2487 2.39098 0
      vertex -11.2487 2.39098 13
    endloop
  endfacet
  facet normal 0 0 1
    outer loop
      vertex 11.2487 2.39098 13
      vertex 11.2487 -2.39098 13
      vertex 11.5 0 13
    endloop
  endfacet
  facet normal 0 0 1
    outer loop
      vertex 10.5058 4.67747 13
      vertex 11.2487 -2.39098 13
      vertex 11.2487 2.39098 13
    endloop
  endfacet
  facet normal 0 0 1
    outer loop
      vertex 10.5058 4.67747 13
      vertex 10.5058 -4.67747 13
      vertex 11.2487 -2.39098 13
    endloop
  endfacet
  facet normal 0 0 1
    outer loop
      vertex 9.30369 6.75953 13
      vertex 10.5058 -4.67747 13
      vertex 10.5058 4.67747 13
    endloop
  endfacet
  facet normal 0 0 1
    outer loop
      vertex 9.30369 6.75953 13
      vertex 9.30369 -6.75953 13
      vertex 10.5058 -4.67747 13
    endloop
  endfacet
  facet normal 0 0 1
    outer loop
      vertex 7.695 8.54617 13
      vertex 9.30369 -6.75953 13
      vertex 9.30369 6.75953 13
    endloop
  endfacet
  facet normal 0 0 1
    outer loop
      vertex 7.695 8.54617 13
      vertex 7.695 -8.54617 13
      vertex 9.30369 -6.75953 13
    endloop
  endfacet
  facet normal 0 0 1
    outer loop
      vertex 5.75 9.95929 13
      vertex 7.695 -8.54617 13
      vertex 7.695 8.54617 13
    endloop
  endfacet
  facet normal 0 0 1
    outer loop
      vertex 5.75 9.95929 13
      vertex 5.75 -9.95929 13
      vertex 7.695 -8.54617 13
    endloop
  endfacet
  facet normal 0 0 1
    outer loop
      vertex 3.55369 10.9371 13
      vertex 5.75 -9.95929 13
      vertex 5.75 9.95929 13
    endloop
  endfacet
  facet normal 0 0 1
    outer loop
      vertex 3.55369 10.9371 13
      vertex 3.55369 -10.9371 13
      vertex 5.75 -9.95929 13
    endloop
  endfacet
  facet normal 0 0 1
    outer loop
      vertex 1.20208 11.437 13
      vertex 3.55369 -10.9371 13
      vertex 3.55369 10.9371 13
    endloop
  endfacet
  facet normal 0 0 1
    outer loop
      vertex 1.20208 11.437 13
      vertex 1.20208 -11.437 13
      vertex 3.55369 -10.9371 13
    endloop
  endfacet
  facet normal -0 0 1
    outer loop
      vertex -1.20208 11.437 13
      vertex 1.20208 -11.437 13
      vertex 1.20208 11.437 13
    endloop
  endfacet
  facet normal 0 0 1
    outer loop
      vertex -1.20208 11.437 13
      vertex -1.20208 -11.437 13
      vertex 1.20208 -11.437 13
    endloop
  endfacet
  facet normal -0 0 1
    outer loop
      vertex -3.55369 10.9371 13
      vertex -1.20208 -11.437 13
      vertex -1.20208 11.437 13
    endloop
  endfacet
  facet normal 0 0 1
    outer loop
      vertex -3.55369 10.9371 13
      vertex -3.55369 -10.9371 13
      vertex -1.20208 -11.437 13
    endloop
  endfacet
  facet normal -0 0 1
    outer loop
      vertex -5.75 9.95929 13
      vertex -3.55369 -10.9371 13
      vertex -3.55369 10.9371 13
    endloop
  endfacet
  facet normal 0 0 1
    outer loop
      vertex -5.75 9.95929 13
      vertex -5.75 -9.95929 13
      vertex -3.55369 -10.9371 13
    endloop
  endfacet
  facet normal -0 0 1
    outer loop
      vertex -7.695 8.54617 13
      vertex -5.75 -9.95929 13
      vertex -5.75 9.95929 13
    endloop
  endfacet
  facet normal 0 0 1
    outer loop
      vertex -7.695 8.54617 13
      vertex -7.695 -8.54617 13
      vertex -5.75 -9.95929 13
    endloop
  endfacet
  facet normal -0 0 1
    outer loop
      vertex -9.30369 6.75953 13
      vertex -7.695 -8.54617 13
      vertex -7.695 8.54617 13
    endloop
  endfacet
  facet normal 0 0 1
    outer loop
      vertex -9.30369 6.75953 13
      vertex -9.30369 -6.75953 13
      vertex -7.695 -8.54617 13
    endloop
  endfacet
  facet normal -0 0 1
    outer loop
      vertex -10.5058 4.67747 13
      vertex -9.30369 -6.75953 13
      vertex -9.30369 6.75953 13
    endloop
  endfacet
  facet normal 0 0 1
    outer loop
      vertex -10.5058 4.67747 13
      vertex -10.5058 -4.67747 13
      vertex -9.30369 -6.75953 13
    endloop
  endfacet
  facet normal -0 0 1
    outer loop
      vertex -11.2487 2.39098 13
      vertex -10.5058 -4.67747 13
      vertex -10.5058 4.67747 13
    endloop
  endfacet
  facet normal 0 0 1
    outer loop
      vertex -11.2487 2.39098 13
      vertex -11.2487 -2.39098 13
      vertex -10.5058 -4.67747 13
    endloop
  endfacet
  facet normal 0 -0 1
    outer loop
      vertex -11.2487 -2.39098 13
      vertex -11.2487 2.39098 13
      vertex -11.5 0 13
    endloop
  endfacet
  facet normal -0.406737 0.913545 0
    outer loop
      vertex -3.55369 10.9371 0
      vertex -5.75 9.95929 13
      vertex -3.55369 10.9371 13
    endloop
  endfacet
  facet normal -0.406737 0.913545 0
    outer loop
      vertex -5.75 9.95929 13
      vertex -3.55369 10.9371 0
      vertex -5.75 9.95929 0
    endloop
  endfacet
  facet normal -0.207912 -0.978148 0
    outer loop
      vertex -3.55369 -10.9371 0
      vertex -1.20208 -11.437 13
      vertex -3.55369 -10.9371 13
    endloop
  endfacet
  facet normal -0.207912 -0.978148 -0
    outer loop
      vertex -1.20208 -11.437 13
      vertex -3.55369 -10.9371 0
      vertex -1.20208 -11.437 0
    endloop
  endfacet
  facet normal 0.587785 -0.809017 0
    outer loop
      vertex 5.75 -9.95929 0
      vertex 7.695 -8.54617 13
      vertex 5.75 -9.95929 13
    endloop
  endfacet
  facet normal 0.587785 -0.809017 0
    outer loop
      vertex 7.695 -8.54617 13
      vertex 5.75 -9.95929 0
      vertex 7.695 -8.54617 0
    endloop
  endfacet
  facet normal 0.743145 -0.66913 0
    outer loop
      vertex 7.695 -8.54617 13
      vertex 9.30369 -6.75953 0
      vertex 9.30369 -6.75953 13
    endloop
  endfacet
  facet normal 0.743145 -0.66913 0
    outer loop
      vertex 9.30369 -6.75953 0
      vertex 7.695 -8.54617 13
      vertex 7.695 -8.54617 0
    endloop
  endfacet
  facet normal 0.951057 -0.309017 0
    outer loop
      vertex 10.5058 -4.67747 13
      vertex 11.2487 -2.39098 0
      vertex 11.2487 -2.39098 13
    endloop
  endfacet
  facet normal 0.951057 -0.309017 0
    outer loop
      vertex 11.2487 -2.39098 0
      vertex 10.5058 -4.67747 13
      vertex 10.5058 -4.67747 0
    endloop
  endfacet
  facet normal 0.994522 -0.104529 0
    outer loop
      vertex 11.2487 -2.39098 13
      vertex 11.5 0 0
      vertex 11.5 0 13
    endloop
  endfacet
  facet normal 0.994522 -0.104529 0
    outer loop
      vertex 11.5 0 0
      vertex 11.2487 -2.39098 13
      vertex 11.2487 -2.39098 0
    endloop
  endfacet
  facet normal -0.866025 -0.5 0
    outer loop
      vertex -9.30369 -6.75953 0
      vertex -10.5058 -4.67747 13
      vertex -10.5058 -4.67747 0
    endloop
  endfacet
  facet normal -0.866025 -0.5 0
    outer loop
      vertex -10.5058 -4.67747 13
      vertex -9.30369 -6.75953 0
      vertex -9.30369 -6.75953 13
    endloop
  endfacet
  facet normal -0.994522 -0.104529 0
    outer loop
      vertex -11.2487 -2.39098 0
      vertex -11.5 0 13
      vertex -11.5 0 0
    endloop
  endfacet
  facet normal -0.994522 -0.104529 0
    outer loop
      vertex -11.5 0 13
      vertex -11.2487 -2.39098 0
      vertex -11.2487 -2.39098 13
    endloop
  endfacet
  facet normal -0.951057 -0.309017 0
    outer loop
      vertex -10.5058 -4.67747 0
      vertex -11.2487 -2.39098 13
      vertex -11.2487 -2.39098 0
    endloop
  endfacet
  facet normal -0.951057 -0.309017 0
    outer loop
      vertex -11.2487 -2.39098 13
      vertex -10.5058 -4.67747 0
      vertex -10.5058 -4.67747 13
    endloop
  endfacet
  facet normal 0.207912 -0.978148 0
    outer loop
      vertex 1.20208 -11.437 0
      vertex 3.55369 -10.9371 13
      vertex 1.20208 -11.437 13
    endloop
  endfacet
  facet normal 0.207912 -0.978148 0
    outer loop
      vertex 3.55369 -10.9371 13
      vertex 1.20208 -11.437 0
      vertex 3.55369 -10.9371 0
    endloop
  endfacet
  facet normal 0 -1 0
    outer loop
      vertex -1.20208 -11.437 0
      vertex 1.20208 -11.437 13
      vertex -1.20208 -11.437 13
    endloop
  endfacet
  facet normal 0 -1 -0
    outer loop
      vertex 1.20208 -11.437 13
      vertex -1.20208 -11.437 0
      vertex 1.20208 -11.437 0
    endloop
  endfacet
  facet normal -0.587785 -0.809017 0
    outer loop
      vertex -7.695 -8.54617 0
      vertex -5.75 -9.95929 13
      vertex -7.695 -8.54617 13
    endloop
  endfacet
  facet normal -0.587785 -0.809017 -0
    outer loop
      vertex -5.75 -9.95929 13
      vertex -7.695 -8.54617 0
      vertex -5.75 -9.95929 0
    endloop
  endfacet
  facet normal -0.406736 -0.913546 0
    outer loop
      vertex -5.75 -9.95929 0
      vertex -3.55369 -10.9371 13
      vertex -5.75 -9.95929 13
    endloop
  endfacet
  facet normal -0.406736 -0.913546 -0
    outer loop
      vertex -3.55369 -10.9371 13
      vertex -5.75 -9.95929 0
      vertex -3.55369 -10.9371 0
    endloop
  endfacet
  facet normal -0.743145 -0.66913 0
    outer loop
      vertex -7.695 -8.54617 0
      vertex -9.30369 -6.75953 13
      vertex -9.30369 -6.75953 0
    endloop
  endfacet
  facet normal -0.743145 -0.66913 0
    outer loop
      vertex -9.30369 -6.75953 13
      vertex -7.695 -8.54617 0
      vertex -7.695 -8.54617 13
    endloop
  endfacet
  facet normal 0.406736 -0.913546 0
    outer loop
      vertex 3.55369 -10.9371 0
      vertex 5.75 -9.95929 13
      vertex 3.55369 -10.9371 13
    endloop
  endfacet
  facet normal 0.406736 -0.913546 0
    outer loop
      vertex 5.75 -9.95929 13
      vertex 3.55369 -10.9371 0
      vertex 5.75 -9.95929 0
    endloop
  endfacet
  facet normal -0.994522 -0.104529 0
    outer loop
      vertex 10 0 0
      vertex 9.78148 2.07912 6.99
      vertex 9.78148 2.07912 0
    endloop
  endfacet
  facet normal -0.994522 -0.104529 0
    outer loop
      vertex 9.78148 2.07912 6.99
      vertex 10 0 0
      vertex 10 0 6.99
    endloop
  endfacet
  facet normal 0.994522 -0.104529 0
    outer loop
      vertex -10 0 6.99
      vertex -9.78148 2.07912 0
      vertex -9.78148 2.07912 6.99
    endloop
  endfacet
  facet normal 0.994522 -0.104529 0
    outer loop
      vertex -9.78148 2.07912 0
      vertex -10 0 6.99
      vertex -10 0 0
    endloop
  endfacet
  facet normal 0 -1 0
    outer loop
      vertex -1.04528 9.94522 0
      vertex 1.04528 9.94522 6.99
      vertex -1.04528 9.94522 6.99
    endloop
  endfacet
  facet normal 0 -1 -0
    outer loop
      vertex 1.04528 9.94522 6.99
      vertex -1.04528 9.94522 0
      vertex 1.04528 9.94522 0
    endloop
  endfacet
  facet normal 0 1 -0
    outer loop
      vertex 1.04528 -9.94522 0
      vertex -1.04528 -9.94522 6.99
      vertex 1.04528 -9.94522 6.99
    endloop
  endfacet
  facet normal 0 1 0
    outer loop
      vertex -1.04528 -9.94522 6.99
      vertex 1.04528 -9.94522 0
      vertex -1.04528 -9.94522 0
    endloop
  endfacet
  facet normal -0.587785 -0.809017 0
    outer loop
      vertex 5 8.66025 0
      vertex 6.69131 7.43145 6.99
      vertex 5 8.66025 6.99
    endloop
  endfacet
  facet normal -0.587785 -0.809017 -0
    outer loop
      vertex 6.69131 7.43145 6.99
      vertex 5 8.66025 0
      vertex 6.69131 7.43145 0
    endloop
  endfacet
  facet normal -0.406737 -0.913545 0
    outer loop
      vertex 3.09017 9.51056 0
      vertex 5 8.66025 6.99
      vertex 3.09017 9.51056 6.99
    endloop
  endfacet
  facet normal -0.406737 -0.913545 -0
    outer loop
      vertex 5 8.66025 6.99
      vertex 3.09017 9.51056 0
      vertex 5 8.66025 0
    endloop
  endfacet
  facet normal 0.743145 -0.669131 0
    outer loop
      vertex -8.09017 5.87785 6.99
      vertex -6.69131 7.43145 0
      vertex -6.69131 7.43145 6.99
    endloop
  endfacet
  facet normal 0.743145 -0.669131 0
    outer loop
      vertex -6.69131 7.43145 0
      vertex -8.09017 5.87785 6.99
      vertex -8.09017 5.87785 0
    endloop
  endfacet
  facet normal 0.866026 -0.5 0
    outer loop
      vertex -9.13545 4.06737 6.99
      vertex -8.09017 5.87785 0
      vertex -8.09017 5.87785 6.99
    endloop
  endfacet
  facet normal 0.866026 -0.5 0
    outer loop
      vertex -8.09017 5.87785 0
      vertex -9.13545 4.06737 6.99
      vertex -9.13545 4.06737 0
    endloop
  endfacet
  facet normal 0.406737 -0.913545 0
    outer loop
      vertex -5 8.66025 0
      vertex -3.09017 9.51056 6.99
      vertex -5 8.66025 6.99
    endloop
  endfacet
  facet normal 0.406737 -0.913545 0
    outer loop
      vertex -3.09017 9.51056 6.99
      vertex -5 8.66025 0
      vertex -3.09017 9.51056 0
    endloop
  endfacet
  facet normal -0.951057 0.309017 0
    outer loop
      vertex 9.13545 -4.06737 0
      vertex 9.78148 -2.07912 6.99
      vertex 9.78148 -2.07912 0
    endloop
  endfacet
  facet normal -0.951057 0.309017 0
    outer loop
      vertex 9.78148 -2.07912 6.99
      vertex 9.13545 -4.06737 0
      vertex 9.13545 -4.06737 6.99
    endloop
  endfacet
  facet normal -0.866026 -0.5 0
    outer loop
      vertex 9.13545 4.06737 0
      vertex 8.09017 5.87785 6.99
      vertex 8.09017 5.87785 0
    endloop
  endfacet
  facet normal -0.866026 -0.5 0
    outer loop
      vertex 8.09017 5.87785 6.99
      vertex 9.13545 4.06737 0
      vertex 9.13545 4.06737 6.99
    endloop
  endfacet
  facet normal -0.951057 -0.309017 0
    outer loop
      vertex 9.78148 2.07912 0
      vertex 9.13545 4.06737 6.99
      vertex 9.13545 4.06737 0
    endloop
  endfacet
  facet normal -0.951057 -0.309017 0
    outer loop
      vertex 9.13545 4.06737 6.99
      vertex 9.78148 2.07912 0
      vertex 9.78148 2.07912 6.99
    endloop
  endfacet
  facet normal -0.743145 -0.669131 0
    outer loop
      vertex 8.09017 5.87785 0
      vertex 6.69131 7.43145 6.99
      vertex 6.69131 7.43145 0
    endloop
  endfacet
  facet normal -0.743145 -0.669131 0
    outer loop
      vertex 6.69131 7.43145 6.99
      vertex 8.09017 5.87785 0
      vertex 8.09017 5.87785 6.99
    endloop
  endfacet
  facet normal -0.207911 -0.978148 0
    outer loop
      vertex 1.04528 9.94522 0
      vertex 3.09017 9.51056 6.99
      vertex 1.04528 9.94522 6.99
    endloop
  endfacet
  facet normal -0.207911 -0.978148 -0
    outer loop
      vertex 3.09017 9.51056 6.99
      vertex 1.04528 9.94522 0
      vertex 3.09017 9.51056 0
    endloop
  endfacet
  facet normal 0.951057 -0.309017 0
    outer loop
      vertex -9.78148 2.07912 6.99
      vertex -9.13545 4.06737 0
      vertex -9.13545 4.06737 6.99
    endloop
  endfacet
  facet normal 0.951057 -0.309017 0
    outer loop
      vertex -9.13545 4.06737 0
      vertex -9.78148 2.07912 6.99
      vertex -9.78148 2.07912 0
    endloop
  endfacet
  facet normal 0 0 -1
    outer loop
      vertex 9.78148 -2.07912 6.99
      vertex 9.78148 2.07912 6.99
      vertex 10 0 6.99
    endloop
  endfacet
  facet normal 0 0 -1
    outer loop
      vertex 9.13545 -4.06737 6.99
      vertex 9.78148 2.07912 6.99
      vertex 9.78148 -2.07912 6.99
    endloop
  endfacet
  facet normal 0 0 -1
    outer loop
      vertex 9.13545 -4.06737 6.99
      vertex 9.13545 4.06737 6.99
      vertex 9.78148 2.07912 6.99
    endloop
  endfacet
  facet normal 0 0 -1
    outer loop
      vertex 8.09017 -5.87785 6.99
      vertex 9.13545 4.06737 6.99
      vertex 9.13545 -4.06737 6.99
    endloop
  endfacet
  facet normal 0 0 -1
    outer loop
      vertex 8.09017 -5.87785 6.99
      vertex 8.09017 5.87785 6.99
      vertex 9.13545 4.06737 6.99
    endloop
  endfacet
  facet normal 0 0 -1
    outer loop
      vertex 6.69131 -7.43145 6.99
      vertex 8.09017 5.87785 6.99
      vertex 8.09017 -5.87785 6.99
    endloop
  endfacet
  facet normal 0 0 -1
    outer loop
      vertex 6.69131 -7.43145 6.99
      vertex 6.69131 7.43145 6.99
      vertex 8.09017 5.87785 6.99
    endloop
  endfacet
  facet normal 0 0 -1
    outer loop
      vertex 5 -8.66025 6.99
      vertex 6.69131 7.43145 6.99
      vertex 6.69131 -7.43145 6.99
    endloop
  endfacet
  facet normal 0 0 -1
    outer loop
      vertex 5 -8.66025 6.99
      vertex 5 8.66025 6.99
      vertex 6.69131 7.43145 6.99
    endloop
  endfacet
  facet normal 0 0 -1
    outer loop
      vertex 3.09017 -9.51056 6.99
      vertex 5 8.66025 6.99
      vertex 5 -8.66025 6.99
    endloop
  endfacet
  facet normal 0 0 -1
    outer loop
      vertex 3.09017 -9.51056 6.99
      vertex 3.09017 9.51056 6.99
      vertex 5 8.66025 6.99
    endloop
  endfacet
  facet normal 0 0 -1
    outer loop
      vertex 1.04528 -9.94522 6.99
      vertex 3.09017 9.51056 6.99
      vertex 3.09017 -9.51056 6.99
    endloop
  endfacet
  facet normal 0 0 -1
    outer loop
      vertex 1.04528 -9.94522 6.99
      vertex 1.04528 9.94522 6.99
      vertex 3.09017 9.51056 6.99
    endloop
  endfacet
  facet normal 0 0 -1
    outer loop
      vertex -1.04528 -9.94522 6.99
      vertex 1.04528 9.94522 6.99
      vertex 1.04528 -9.94522 6.99
    endloop
  endfacet
  facet normal 0 0 -1
    outer loop
      vertex -1.04528 -9.94522 6.99
      vertex -1.04528 9.94522 6.99
      vertex 1.04528 9.94522 6.99
    endloop
  endfacet
  facet normal 0 0 -1
    outer loop
      vertex -3.09017 -9.51056 6.99
      vertex -1.04528 9.94522 6.99
      vertex -1.04528 -9.94522 6.99
    endloop
  endfacet
  facet normal 0 0 -1
    outer loop
      vertex -3.09017 -9.51056 6.99
      vertex -3.09017 9.51056 6.99
      vertex -1.04528 9.94522 6.99
    endloop
  endfacet
  facet normal 0 0 -1
    outer loop
      vertex -3.09017 -9.51056 6.99
      vertex -5 8.66025 6.99
      vertex -3.09017 9.51056 6.99
    endloop
  endfacet
  facet normal 0 0 -1
    outer loop
      vertex -5 -8.66025 6.99
      vertex -5 8.66025 6.99
      vertex -3.09017 -9.51056 6.99
    endloop
  endfacet
  facet normal 0 0 -1
    outer loop
      vertex -6.69131 -7.43145 6.99
      vertex -5 8.66025 6.99
      vertex -5 -8.66025 6.99
    endloop
  endfacet
  facet normal 0 0 -1
    outer loop
      vertex -6.69131 -7.43145 6.99
      vertex -6.69131 7.43145 6.99
      vertex -5 8.66025 6.99
    endloop
  endfacet
  facet normal 0 0 -1
    outer loop
      vertex -8.09017 -5.87785 6.99
      vertex -6.69131 7.43145 6.99
      vertex -6.69131 -7.43145 6.99
    endloop
  endfacet
  facet normal 0 0 -1
    outer loop
      vertex -8.09017 -5.87785 6.99
      vertex -8.09017 5.87785 6.99
      vertex -6.69131 7.43145 6.99
    endloop
  endfacet
  facet normal 0 0 -1
    outer loop
      vertex -9.13545 -4.06737 6.99
      vertex -8.09017 5.87785 6.99
      vertex -8.09017 -5.87785 6.99
    endloop
  endfacet
  facet normal 0 0 -1
    outer loop
      vertex -9.13545 -4.06737 6.99
      vertex -9.13545 4.06737 6.99
      vertex -8.09017 5.87785 6.99
    endloop
  endfacet
  facet normal 0 0 -1
    outer loop
      vertex -9.78148 -2.07912 6.99
      vertex -9.13545 4.06737 6.99
      vertex -9.13545 -4.06737 6.99
    endloop
  endfacet
  facet normal 0 0 -1
    outer loop
      vertex -9.78148 -2.07912 6.99
      vertex -9.78148 2.07912 6.99
      vertex -9.13545 4.06737 6.99
    endloop
  endfacet
  facet normal 0 -0 -1
    outer loop
      vertex -9.78148 2.07912 6.99
      vertex -9.78148 -2.07912 6.99
      vertex -10 0 6.99
    endloop
  endfacet
  facet normal 0.587785 -0.809017 0
    outer loop
      vertex -6.69131 7.43145 0
      vertex -5 8.66025 6.99
      vertex -6.69131 7.43145 6.99
    endloop
  endfacet
  facet normal 0.587785 -0.809017 0
    outer loop
      vertex -5 8.66025 6.99
      vertex -6.69131 7.43145 0
      vertex -5 8.66025 0
    endloop
  endfacet
  facet normal 0.207911 -0.978148 0
    outer loop
      vertex -3.09017 9.51056 0
      vertex -1.04528 9.94522 6.99
      vertex -3.09017 9.51056 6.99
    endloop
  endfacet
  facet normal 0.207911 -0.978148 0
    outer loop
      vertex -1.04528 9.94522 6.99
      vertex -3.09017 9.51056 0
      vertex -1.04528 9.94522 0
    endloop
  endfacet
  facet normal -0.994522 0.104529 0
    outer loop
      vertex 9.78148 -2.07912 0
      vertex 10 0 6.99
      vertex 10 0 0
    endloop
  endfacet
  facet normal -0.994522 0.104529 0
    outer loop
      vertex 10 0 6.99
      vertex 9.78148 -2.07912 0
      vertex 9.78148 -2.07912 6.99
    endloop
  endfacet
  facet normal -0.207911 0.978148 0
    outer loop
      vertex 3.09017 -9.51056 0
      vertex 1.04528 -9.94522 6.99
      vertex 3.09017 -9.51056 6.99
    endloop
  endfacet
  facet normal -0.207911 0.978148 0
    outer loop
      vertex 1.04528 -9.94522 6.99
      vertex 3.09017 -9.51056 0
      vertex 1.04528 -9.94522 0
    endloop
  endfacet
  facet normal -0.866026 0.5 0
    outer loop
      vertex 8.09017 -5.87785 0
      vertex 9.13545 -4.06737 6.99
      vertex 9.13545 -4.06737 0
    endloop
  endfacet
  facet normal -0.866026 0.5 0
    outer loop
      vertex 9.13545 -4.06737 6.99
      vertex 8.09017 -5.87785 0
      vertex 8.09017 -5.87785 6.99
    endloop
  endfacet
  facet normal 0.866026 0.5 0
    outer loop
      vertex -8.09017 -5.87785 6.99
      vertex -9.13545 -4.06737 0
      vertex -9.13545 -4.06737 6.99
    endloop
  endfacet
  facet normal 0.866026 0.5 0
    outer loop
      vertex -9.13545 -4.06737 0
      vertex -8.09017 -5.87785 6.99
      vertex -8.09017 -5.87785 0
    endloop
  endfacet
  facet normal -0.587785 0.809017 0
    outer loop
      vertex 6.69131 -7.43145 0
      vertex 5 -8.66025 6.99
      vertex 6.69131 -7.43145 6.99
    endloop
  endfacet
  facet normal -0.587785 0.809017 0
    outer loop
      vertex 5 -8.66025 6.99
      vertex 6.69131 -7.43145 0
      vertex 5 -8.66025 0
    endloop
  endfacet
  facet normal -0.406737 0.913545 0
    outer loop
      vertex 5 -8.66025 0
      vertex 3.09017 -9.51056 6.99
      vertex 5 -8.66025 6.99
    endloop
  endfacet
  facet normal -0.406737 0.913545 0
    outer loop
      vertex 3.09017 -9.51056 6.99
      vertex 5 -8.66025 0
      vertex 3.09017 -9.51056 0
    endloop
  endfacet
  facet normal 0.743145 0.669131 0
    outer loop
      vertex -6.69131 -7.43145 6.99
      vertex -8.09017 -5.87785 0
      vertex -8.09017 -5.87785 6.99
    endloop
  endfacet
  facet normal 0.743145 0.669131 0
    outer loop
      vertex -8.09017 -5.87785 0
      vertex -6.69131 -7.43145 6.99
      vertex -6.69131 -7.43145 0
    endloop
  endfacet
  facet normal 0.951057 0.309017 0
    outer loop
      vertex -9.13545 -4.06737 6.99
      vertex -9.78148 -2.07912 0
      vertex -9.78148 -2.07912 6.99
    endloop
  endfacet
  facet normal 0.951057 0.309017 0
    outer loop
      vertex -9.78148 -2.07912 0
      vertex -9.13545 -4.06737 6.99
      vertex -9.13545 -4.06737 0
    endloop
  endfacet
  facet normal 0.994522 0.104529 0
    outer loop
      vertex -9.78148 -2.07912 6.99
      vertex -10 0 0
      vertex -10 0 6.99
    endloop
  endfacet
  facet normal 0.994522 0.104529 0
    outer loop
      vertex -10 0 0
      vertex -9.78148 -2.07912 6.99
      vertex -9.78148 -2.07912 0
    endloop
  endfacet
  facet normal -0.743145 0.669131 0
    outer loop
      vertex 6.69131 -7.43145 0
      vertex 8.09017 -5.87785 6.99
      vertex 8.09017 -5.87785 0
    endloop
  endfacet
  facet normal -0.743145 0.669131 0
    outer loop
      vertex 8.09017 -5.87785 6.99
      vertex 6.69131 -7.43145 0
      vertex 6.69131 -7.43145 6.99
    endloop
  endfacet
  facet normal 0.587785 0.809017 -0
    outer loop
      vertex -5 -8.66025 0
      vertex -6.69131 -7.43145 6.99
      vertex -5 -8.66025 6.99
    endloop
  endfacet
  facet normal 0.587785 0.809017 0
    outer loop
      vertex -6.69131 -7.43145 6.99
      vertex -5 -8.66025 0
      vertex -6.69131 -7.43145 0
    endloop
  endfacet
  facet normal 0.406737 0.913545 -0
    outer loop
      vertex -3.09017 -9.51056 0
      vertex -5 -8.66025 6.99
      vertex -3.09017 -9.51056 6.99
    endloop
  endfacet
  facet normal 0.406737 0.913545 0
    outer loop
      vertex -5 -8.66025 6.99
      vertex -3.09017 -9.51056 0
      vertex -5 -8.66025 0
    endloop
  endfacet
  facet normal 0.207911 0.978148 -0
    outer loop
      vertex -1.04528 -9.94522 0
      vertex -3.09017 -9.51056 6.99
      vertex -1.04528 -9.94522 6.99
    endloop
  endfacet
  facet normal 0.207911 0.978148 0
    outer loop
      vertex -3.09017 -9.51056 6.99
      vertex -1.04528 -9.94522 0
      vertex -3.09017 -9.51056 0
    endloop
  endfacet
endsolid OpenSCAD_Model
